<?xml version="1.0" encoding="UTF-8" standalone="no"?>
<svg
   xmlns:dc="http://purl.org/dc/elements/1.1/"
   xmlns:cc="http://creativecommons.org/ns#"
   xmlns:rdf="http://www.w3.org/1999/02/22-rdf-syntax-ns#"
   xmlns:svg="http://www.w3.org/2000/svg"
   xmlns="http://www.w3.org/2000/svg"
   xmlns:sodipodi="http://sodipodi.sourceforge.net/DTD/sodipodi-0.dtd"
   xmlns:inkscape="http://www.inkscape.org/namespaces/inkscape"
   width="21.87537mm"
   height="21.87537mm"
   viewBox="0 0 77.511149 77.511154"
   id="svg2"
   version="1.1"
   inkscape:version="1.0.1 (3bc2e813f5, 2020-09-07)"
   sodipodi:docname="group-avatar.svg"
   inkscape:export-filename="/home/Menci/Pictures/loj-group.png"
   inkscape:export-xdpi="1188.9901"
   inkscape:export-ydpi="1188.9901">
  <defs
     id="defs4" />
  <sodipodi:namedview
     id="base"
     pagecolor="#ffffff"
     bordercolor="#666666"
     borderopacity="1.0"
     inkscape:pageopacity="0.0"
     inkscape:pageshadow="2"
     inkscape:zoom="2.8"
     inkscape:cx="174.29668"
     inkscape:cy="71.68507"
     inkscape:document-units="px"
     inkscape:current-layer="layer1"
     showgrid="false"
     inkscape:window-width="1920"
     inkscape:window-height="1013"
     inkscape:window-x="0"
     inkscape:window-y="0"
     inkscape:window-maximized="1"
     fit-margin-top="0"
     fit-margin-left="0"
     fit-margin-right="0"
     fit-margin-bottom="0"
     inkscape:snap-bbox="true"
     inkscape:bbox-nodes="true"
     inkscape:bbox-paths="true"
     inkscape:snap-bbox-edge-midpoints="true"
     inkscape:snap-bbox-midpoints="true"
     inkscape:object-paths="true"
     inkscape:snap-intersection-paths="true"
     inkscape:snap-smooth-nodes="true"
     inkscape:object-nodes="true"
     inkscape:snap-midpoints="true"
     inkscape:snap-object-midpoints="true"
     inkscape:snap-center="true"
     inkscape:snap-text-baseline="true"
     inkscape:snap-page="true"
     showguides="true"
     inkscape:guide-bbox="true"
     inkscape:snap-global="true"
     inkscape:document-rotation="0" />
  <metadata
     id="metadata7">
    <rdf:RDF>
      <cc:Work
         rdf:about="">
        <dc:format>image/svg+xml</dc:format>
        <dc:type
           rdf:resource="http://purl.org/dc/dcmitype/StillImage" />
        <dc:title />
      </cc:Work>
    </rdf:RDF>
  </metadata>
  <g
     inkscape:label="Layer 1"
     inkscape:groupmode="layer"
     id="layer1"
     transform="translate(-218.90425,-257.10468)">
    <g
       id="g864"
       transform="translate(-81.915407,-67.702238)">
      <path
         inkscape:connector-curvature="0"
         id="rect4219"
         d="m 342.13496,332.24968 -10.82386,7.57891 -6.55596,4.58968 -3.27883,2.29653 3.27883,2.29653 17.37982,12.17028 v -2.44727 l -13.88252,-9.72131 -3.28052,-2.29653 3.28052,-2.29654 6.55596,-4.58968 7.32656,-5.13164 z"
         style="opacity:1;fill:#000000;fill-opacity:1;stroke:#000000;stroke-width:0.3468512;stroke-linecap:butt;stroke-linejoin:miter;stroke-miterlimit:4;stroke-dasharray:none;stroke-dashoffset:0;stroke-opacity:1" />
      <path
         id="rect4219-7"
         d="m 335.17398,343.27596 10.82386,7.5789 6.55596,4.58968 3.27883,2.29654 -3.27883,2.29652 -17.37982,12.17028 v -2.44727 l 13.88251,-9.72131 3.28053,-2.29653 -3.28053,-2.29654 -6.55595,-4.58968 -7.32656,-5.13164 z"
         style="opacity:1;fill:#000000;fill-opacity:1;stroke:#000000;stroke-width:0.3468512;stroke-linecap:butt;stroke-linejoin:miter;stroke-miterlimit:4;stroke-dasharray:none;stroke-dashoffset:0;stroke-opacity:1"
         inkscape:connector-curvature="0" />
    </g>
    <g
       aria-label="LibreOJ"
       id="text835"
       style="font-style:normal;font-weight:normal;font-size:165.246px;line-height:1.25;font-family:sans-serif;fill:#000000;fill-opacity:1;stroke:none;stroke-width:1.77049"
       transform="matrix(0.10769865,0,0,0.10769865,-123.82805,266.18722)">
      <path
         d="M 3275.2912,509.10315 V 395.4139 h 14.2112 v 99.97383 h 53.0439 v 13.71542 z"
         style="font-style:normal;font-variant:normal;font-weight:normal;font-stretch:normal;font-size:165.246px;font-family:Saira;-inkscape-font-specification:Saira;stroke-width:1.77049"
         id="path1025" />
      <path
         d="m 3361.5493,401.69325 v -15.36788 h 14.2112 v 15.36788 z m 0.4958,107.4099 v -84.27546 h 13.3849 v 84.27546 z"
         style="font-style:normal;font-variant:normal;font-weight:normal;font-stretch:normal;font-size:165.246px;font-family:Saira;-inkscape-font-specification:Saira;stroke-width:1.77049"
         id="path1027" />
      <path
         d="m 3445.329,510.42512 q -10.2453,0 -17.3508,-2.64394 -7.1056,-2.80918 -10.4105,-10.4105 h -0.9915 l -0.661,11.73247 h -11.8977 V 386.32537 h 13.3849 v 49.07806 h 0.8262 q 3.305,-6.60984 9.9148,-9.25377 6.7751,-2.64394 17.5161,-2.64394 12.3934,0 18.838,3.80066 6.6099,3.80066 9.2538,13.05443 2.8092,9.08853 2.8092,26.60461 0,17.51608 -2.8092,26.76985 -2.6439,9.08853 -9.2538,12.88919 -6.6098,3.80066 -19.1685,3.80066 z m -5.2879,-12.88919 q 10.741,0 15.2026,-1.98295 4.6269,-1.98295 6.1141,-8.09706 1.6525,-6.1141 1.6525,-20.4905 0,-14.21116 -1.6525,-20.16001 -1.4872,-6.11411 -6.1141,-8.09706 -4.4616,-2.1482 -15.2026,-2.1482 -8.097,0 -12.8892,1.98296 -4.7921,1.98295 -6.7751,6.1141 -1.8177,3.63541 -2.4787,8.75804 -0.4957,5.12262 -0.4957,13.55017 0,8.75804 0.4957,13.71542 0.4958,4.95738 2.3135,8.59279 2.1482,4.2964 6.9403,6.27935 4.7922,1.98295 12.8892,1.98295 z"
         style="font-style:normal;font-variant:normal;font-weight:normal;font-stretch:normal;font-size:165.246px;font-family:Saira;-inkscape-font-specification:Saira;stroke-width:1.77049"
         id="path1029" />
      <path
         d="m 3501.6778,424.82769 h 11.8977 l 0.661,16.02886 h 0.9915 q 2.9744,-9.91476 9.9148,-13.55017 6.9403,-3.80066 18.177,-3.80066 v 14.3764 q -11.402,0 -17.5161,3.47017 -6.1141,3.47016 -8.4275,10.74099 -2.3134,7.10558 -2.3134,19.33378 v 37.67609 h -13.385 z"
         style="font-style:normal;font-variant:normal;font-weight:normal;font-stretch:normal;font-size:165.246px;font-family:Saira;-inkscape-font-specification:Saira;stroke-width:1.77049"
         id="path1031" />
      <path
         d="m 3628.9168,471.75755 h -57.6708 q 0,12.06296 1.6524,17.18559 1.6525,5.12262 7.1056,7.27082 5.6184,1.98295 18.6728,1.98295 12.724,0 26.9351,-1.8177 v 11.73246 q -5.2879,0.99148 -13.7154,1.65246 -8.4276,0.66099 -16.0289,0.66099 -17.0203,0 -25.1174,-3.96591 -7.9318,-3.9659 -10.4105,-12.72394 -2.4787,-8.75804 -2.4787,-26.60461 0,-17.51607 2.1482,-26.27411 2.3135,-8.75804 10.0801,-13.05443 7.9318,-4.2964 24.9521,-4.2964 15.8636,0 22.9692,4.2964 7.1056,4.13115 8.9233,12.72394 1.9829,8.42754 1.9829,26.43936 z m -34.2059,-36.02363 q -10.741,0 -15.5331,1.98296 -4.6269,1.8177 -6.2794,7.10557 -1.4872,5.12263 -1.6524,16.68985 h 44.7816 v -1.32197 q 0,-10.90623 -1.9829,-16.02886 -1.8177,-5.12263 -6.1141,-6.77509 -4.2964,-1.65246 -13.2197,-1.65246 z"
         style="font-style:normal;font-variant:normal;font-weight:normal;font-stretch:normal;font-size:165.246px;font-family:Saira;-inkscape-font-specification:Saira;stroke-width:1.77049"
         id="path1033" />
      <path
         d="m 3698.9811,510.42512 q -22.6387,0 -32.0578,-4.46164 -9.419,-4.46165 -12.0629,-15.53313 -2.4787,-11.23673 -2.4787,-38.17183 0,-26.93509 2.4787,-38.00658 2.6439,-11.23672 12.0629,-15.69837 9.4191,-4.46164 32.0578,-4.46164 22.4734,0 31.8924,4.46164 9.5843,4.46165 12.063,15.69837 2.6439,11.07149 2.6439,38.00658 0,26.9351 -2.6439,38.17183 -2.4787,11.07148 -12.063,15.53313 -9.419,4.46164 -31.8924,4.46164 z m 0,-13.21968 q 16.8551,0 22.8039,-2.1482 5.9489,-2.1482 7.7666,-10.74099 1.8177,-8.59279 1.8177,-32.05773 0,-23.46493 -1.8177,-32.05772 -1.8177,-8.59279 -7.7666,-10.74099 -5.9488,-2.1482 -22.8039,-2.1482 -16.8551,0 -22.9692,2.1482 -5.9489,2.1482 -7.7666,10.74099 -1.8177,8.59279 -1.8177,32.05772 0,23.46494 1.8177,32.05773 1.8177,8.59279 7.7666,10.74099 6.1141,2.1482 22.9692,2.1482 z"
         style="font-style:normal;font-variant:normal;font-weight:normal;font-stretch:normal;font-size:165.246px;font-family:Saira;-inkscape-font-specification:Saira;stroke-width:1.77049"
         id="path1035" />
      <path
         d="m 3763.9225,496.54445 q 12.5587,-0.33049 16.8551,-1.8177 4.4616,-1.65246 5.6184,-6.94033 1.1567,-5.28788 1.1567,-20.65576 V 395.4139 h 14.2111 v 66.75938 q 0,24.45641 -1.9829,33.21445 -1.983,8.75804 -9.0885,11.23673 -6.9404,2.31344 -26.7699,2.47869 z"
         style="font-style:normal;font-variant:normal;font-weight:normal;font-stretch:normal;font-size:165.246px;font-family:Saira;-inkscape-font-specification:Saira;stroke-width:1.77049"
         id="path1037" />
    </g>
  </g>
</svg>
