<?xml version="1.0" encoding="UTF-8" standalone="no"?>
<svg
   xmlns:dc="http://purl.org/dc/elements/1.1/"
   xmlns:cc="http://creativecommons.org/ns#"
   xmlns:rdf="http://www.w3.org/1999/02/22-rdf-syntax-ns#"
   xmlns:svg="http://www.w3.org/2000/svg"
   xmlns="http://www.w3.org/2000/svg"
   xmlns:sodipodi="http://sodipodi.sourceforge.net/DTD/sodipodi-0.dtd"
   xmlns:inkscape="http://www.inkscape.org/namespaces/inkscape"
   width="705.70618mm"
   height="169.92767mm"
   viewBox="0 0 705.70618 169.92767"
   version="1.1"
   id="svg8"
   inkscape:version="1.0.1 (3bc2e813f5, 2020-09-07)"
   sodipodi:docname="logo-maintaince.svg">
  <defs
     id="defs2" />
  <sodipodi:namedview
     id="base"
     pagecolor="#ffffff"
     bordercolor="#666666"
     borderopacity="1.0"
     inkscape:pageopacity="0.0"
     inkscape:pageshadow="2"
     inkscape:zoom="0.35"
     inkscape:cx="1173.5178"
     inkscape:cy="237.66027"
     inkscape:document-units="mm"
     inkscape:current-layer="layer1-6"
     inkscape:document-rotation="0"
     showgrid="false"
     inkscape:window-width="1920"
     inkscape:window-height="1013"
     inkscape:window-x="0"
     inkscape:window-y="0"
     inkscape:window-maximized="1"
     showguides="true"
     inkscape:guide-bbox="true"
     inkscape:snap-bbox="true"
     inkscape:bbox-paths="true"
     inkscape:snap-bbox-edge-midpoints="true"
     inkscape:bbox-nodes="true"
     inkscape:snap-bbox-midpoints="true"
     inkscape:object-paths="true"
     inkscape:snap-intersection-paths="true"
     inkscape:snap-smooth-nodes="true"
     inkscape:snap-midpoints="true"
     inkscape:snap-object-midpoints="true"
     inkscape:snap-center="true"
     inkscape:snap-text-baseline="true"
     inkscape:snap-page="true"
     fit-margin-top="0"
     fit-margin-left="0"
     fit-margin-right="0"
     fit-margin-bottom="0">
    <sodipodi:guide
       position="352.977,169.92766"
       orientation="0,-1"
       id="guide936" />
    <sodipodi:guide
       position="352.977,0.90693456"
       orientation="0,-1"
       id="guide938" />
    <sodipodi:guide
       position="352.8531,84.51036"
       orientation="1,0"
       id="guide942" />
    <sodipodi:guide
       position="175.20425,169.92767"
       orientation="1,0"
       id="guide952" />
    <sodipodi:guide
       position="3.93245e-05,169.92767"
       orientation="1,0"
       id="guide954" />
  </sodipodi:namedview>
  <metadata
     id="metadata5">
    <rdf:RDF>
      <cc:Work
         rdf:about="">
        <dc:format>image/svg+xml</dc:format>
        <dc:type
           rdf:resource="http://purl.org/dc/dcmitype/StillImage" />
        <dc:title></dc:title>
      </cc:Work>
    </rdf:RDF>
  </metadata>
  <g
     inkscape:label="图层 1"
     inkscape:groupmode="layer"
     id="layer1"
     transform="translate(-769.73619,-79.3803)">
    <g
       inkscape:label="Layer 1"
       id="layer1-6"
       transform="matrix(0.28222224,0,0,0.28222224,-8.9631351,11.791308)">
      <g
         id="g843"
         transform="matrix(1.5034981,0,0,1.5034981,2861.0101,116.49121)">
        <path
           style="opacity:1;fill:#000000;fill-opacity:1;stroke:#ffffff;stroke-width:1.67946;stroke-linecap:butt;stroke-linejoin:miter;stroke-miterlimit:4;stroke-dasharray:none;stroke-dashoffset:0;stroke-opacity:1"
           d="m 162.1715,123.96453 -52.42964,36.71143 -31.756401,22.23194 -15.882296,11.12415 15.882296,11.12417 84.186041,58.95157 V 252.25348 L 94.926016,205.16446 79.035527,194.04028 94.926016,182.91609 126.68242,160.68416 162.1715,135.82704 Z"
           id="rect4219"
           inkscape:connector-curvature="0" />
        <path
           inkscape:connector-curvature="0"
           style="opacity:1;fill:#000000;fill-opacity:1;stroke:#ffffff;stroke-width:1.67946;stroke-linecap:butt;stroke-linejoin:miter;stroke-miterlimit:4;stroke-dasharray:none;stroke-dashoffset:0;stroke-opacity:1"
           d="m 128.45326,177.37466 52.42963,36.71139 31.75641,22.23194 15.8823,11.12419 -15.8823,11.12414 -84.18604,58.95157 v -11.85432 l 67.24543,-47.08901 15.89054,-11.12419 -15.89054,-11.12418 -31.75635,-22.23194 -35.48908,-24.85712 z"
           id="rect4219-7" />
      </g>
      <g
         aria-label="LibreOJ"
         id="text835"
         style="font-style:normal;font-weight:normal;font-size:165.246px;line-height:1.25;font-family:sans-serif;fill:#000000;fill-opacity:1;stroke:none;stroke-width:1.77049">
        <path
           d="M 3275.2912,509.10315 V 395.4139 h 14.2112 v 99.97383 h 53.0439 v 13.71542 z"
           style="font-style:normal;font-variant:normal;font-weight:normal;font-stretch:normal;font-size:165.246px;font-family:Saira;-inkscape-font-specification:Saira;stroke-width:1.77049"
           id="path1025" />
        <path
           d="m 3361.5493,401.69325 v -15.36788 h 14.2112 v 15.36788 z m 0.4958,107.4099 v -84.27546 h 13.3849 v 84.27546 z"
           style="font-style:normal;font-variant:normal;font-weight:normal;font-stretch:normal;font-size:165.246px;font-family:Saira;-inkscape-font-specification:Saira;stroke-width:1.77049"
           id="path1027" />
        <path
           d="m 3445.329,510.42512 q -10.2453,0 -17.3508,-2.64394 -7.1056,-2.80918 -10.4105,-10.4105 h -0.9915 l -0.661,11.73247 h -11.8977 V 386.32537 h 13.3849 v 49.07806 h 0.8262 q 3.305,-6.60984 9.9148,-9.25377 6.7751,-2.64394 17.5161,-2.64394 12.3934,0 18.838,3.80066 6.6099,3.80066 9.2538,13.05443 2.8092,9.08853 2.8092,26.60461 0,17.51608 -2.8092,26.76985 -2.6439,9.08853 -9.2538,12.88919 -6.6098,3.80066 -19.1685,3.80066 z m -5.2879,-12.88919 q 10.741,0 15.2026,-1.98295 4.6269,-1.98295 6.1141,-8.09706 1.6525,-6.1141 1.6525,-20.4905 0,-14.21116 -1.6525,-20.16001 -1.4872,-6.11411 -6.1141,-8.09706 -4.4616,-2.1482 -15.2026,-2.1482 -8.097,0 -12.8892,1.98296 -4.7921,1.98295 -6.7751,6.1141 -1.8177,3.63541 -2.4787,8.75804 -0.4957,5.12262 -0.4957,13.55017 0,8.75804 0.4957,13.71542 0.4958,4.95738 2.3135,8.59279 2.1482,4.2964 6.9403,6.27935 4.7922,1.98295 12.8892,1.98295 z"
           style="font-style:normal;font-variant:normal;font-weight:normal;font-stretch:normal;font-size:165.246px;font-family:Saira;-inkscape-font-specification:Saira;stroke-width:1.77049"
           id="path1029" />
        <path
           d="m 3501.6778,424.82769 h 11.8977 l 0.661,16.02886 h 0.9915 q 2.9744,-9.91476 9.9148,-13.55017 6.9403,-3.80066 18.177,-3.80066 v 14.3764 q -11.402,0 -17.5161,3.47017 -6.1141,3.47016 -8.4275,10.74099 -2.3134,7.10558 -2.3134,19.33378 v 37.67609 h -13.385 z"
           style="font-style:normal;font-variant:normal;font-weight:normal;font-stretch:normal;font-size:165.246px;font-family:Saira;-inkscape-font-specification:Saira;stroke-width:1.77049"
           id="path1031" />
        <path
           d="m 3628.9168,471.75755 h -57.6708 q 0,12.06296 1.6524,17.18559 1.6525,5.12262 7.1056,7.27082 5.6184,1.98295 18.6728,1.98295 12.724,0 26.9351,-1.8177 v 11.73246 q -5.2879,0.99148 -13.7154,1.65246 -8.4276,0.66099 -16.0289,0.66099 -17.0203,0 -25.1174,-3.96591 -7.9318,-3.9659 -10.4105,-12.72394 -2.4787,-8.75804 -2.4787,-26.60461 0,-17.51607 2.1482,-26.27411 2.3135,-8.75804 10.0801,-13.05443 7.9318,-4.2964 24.9521,-4.2964 15.8636,0 22.9692,4.2964 7.1056,4.13115 8.9233,12.72394 1.9829,8.42754 1.9829,26.43936 z m -34.2059,-36.02363 q -10.741,0 -15.5331,1.98296 -4.6269,1.8177 -6.2794,7.10557 -1.4872,5.12263 -1.6524,16.68985 h 44.7816 v -1.32197 q 0,-10.90623 -1.9829,-16.02886 -1.8177,-5.12263 -6.1141,-6.77509 -4.2964,-1.65246 -13.2197,-1.65246 z"
           style="font-style:normal;font-variant:normal;font-weight:normal;font-stretch:normal;font-size:165.246px;font-family:Saira;-inkscape-font-specification:Saira;stroke-width:1.77049"
           id="path1033" />
        <path
           d="m 3698.9811,510.42512 q -22.6387,0 -32.0578,-4.46164 -9.419,-4.46165 -12.0629,-15.53313 -2.4787,-11.23673 -2.4787,-38.17183 0,-26.93509 2.4787,-38.00658 2.6439,-11.23672 12.0629,-15.69837 9.4191,-4.46164 32.0578,-4.46164 22.4734,0 31.8924,4.46164 9.5843,4.46165 12.063,15.69837 2.6439,11.07149 2.6439,38.00658 0,26.9351 -2.6439,38.17183 -2.4787,11.07148 -12.063,15.53313 -9.419,4.46164 -31.8924,4.46164 z m 0,-13.21968 q 16.8551,0 22.8039,-2.1482 5.9489,-2.1482 7.7666,-10.74099 1.8177,-8.59279 1.8177,-32.05773 0,-23.46493 -1.8177,-32.05772 -1.8177,-8.59279 -7.7666,-10.74099 -5.9488,-2.1482 -22.8039,-2.1482 -16.8551,0 -22.9692,2.1482 -5.9489,2.1482 -7.7666,10.74099 -1.8177,8.59279 -1.8177,32.05772 0,23.46494 1.8177,32.05773 1.8177,8.59279 7.7666,10.74099 6.1141,2.1482 22.9692,2.1482 z"
           style="font-style:normal;font-variant:normal;font-weight:normal;font-stretch:normal;font-size:165.246px;font-family:Saira;-inkscape-font-specification:Saira;stroke-width:1.77049"
           id="path1035" />
        <path
           d="m 3763.9225,496.54445 q 12.5587,-0.33049 16.8551,-1.8177 4.4616,-1.65246 5.6184,-6.94033 1.1567,-5.28788 1.1567,-20.65576 V 395.4139 h 14.2111 v 66.75938 q 0,24.45641 -1.9829,33.21445 -1.983,8.75804 -9.0885,11.23673 -6.9404,2.31344 -26.7699,2.47869 z"
           style="font-style:normal;font-variant:normal;font-weight:normal;font-stretch:normal;font-size:165.246px;font-family:Saira;-inkscape-font-specification:Saira;stroke-width:1.77049"
           id="path1037" />
      </g>
      <g
         aria-label="The next generation online judge system
Coming soon ..."
         id="text835-0"
         style="font-style:normal;font-weight:normal;font-size:47.0124px;line-height:1.25;font-family:sans-serif;fill:#000000;fill-opacity:1;stroke:none;stroke-width:0.503704">
        <path
           d="m 2951.4064,701.50244 v -29.42976 h -10.5308 v -2.91477 h 24.1174 v 2.91477 h -10.5308 v 29.42976 z"
           style="font-style:normal;font-variant:normal;font-weight:300;font-stretch:normal;font-family:Saira;-inkscape-font-specification:'Saira Light'"
           id="path1040" />
        <path
           d="m 2987.6059,687.44573 q 0,-3.47891 -0.4701,-4.98331 -0.4702,-1.55141 -1.8335,-2.06855 -1.3164,-0.51713 -4.2781,-0.51713 -3.3379,0 -4.9363,1.12829 -1.5515,1.08129 -1.9276,2.91477 -0.3761,1.83349 -0.3761,5.17137 v 12.41127 h -2.8677 v -34.93021 h 2.8677 v 14.24475 h 0.2351 q 0.7052,-1.64543 2.4917,-2.63269 1.8335,-1.03427 5.5004,-1.03427 3.62,0 5.4064,0.94025 1.8335,0.94024 2.4447,2.91476 0.6112,1.92751 0.6112,5.45344 v 15.04397 h -2.8678 z"
           style="font-style:normal;font-variant:normal;font-weight:300;font-stretch:normal;font-family:Saira;-inkscape-font-specification:'Saira Light'"
           id="path1042" />
        <path
           d="m 3017.9289,690.54855 h -16.9715 q 0,3.90203 0.5171,5.64149 0.5172,1.69245 2.1626,2.39763 1.6925,0.65818 5.5475,0.65818 1.7864,0 3.996,-0.14104 2.2096,-0.18805 3.808,-0.42311 v 2.53867 q -1.4103,0.32908 -3.761,0.47012 -2.3036,0.18805 -4.6072,0.18805 -4.7012,0 -6.9108,-1.08128 -2.2096,-1.08129 -2.9148,-3.57295 -0.7051,-2.49165 -0.7051,-7.66302 0,-5.17136 0.6111,-7.61601 0.6112,-2.44464 2.7737,-3.61995 2.2096,-1.17531 7.0989,-1.17531 4.3722,0 6.3467,1.1283 1.9745,1.12829 2.4916,3.57294 0.5172,2.44464 0.5172,7.66302 z m -9.4965,-10.76584 q -3.4789,0 -4.9833,0.61116 -1.5044,0.61116 -1.9746,2.30361 -0.4701,1.69245 -0.5171,5.54746 h 14.1978 v -0.65817 q 0,-3.52593 -0.6112,-5.12435 -0.5642,-1.64544 -1.9275,-2.16257 -1.3634,-0.51714 -4.1841,-0.51714 z"
           style="font-style:normal;font-variant:normal;font-weight:300;font-stretch:normal;font-family:Saira;-inkscape-font-specification:'Saira Light'"
           id="path1044" />
        <path
           d="m 3051.5427,688.62104 q 0,-3.24385 -0.3291,-4.5602 -0.3291,-1.36336 -1.3164,-1.73946 -0.9872,-0.42311 -3.4319,-0.42311 -2.4446,0 -3.6669,0.7522 -1.1753,0.7522 -1.5514,2.25659 -0.3291,1.45739 -0.3291,4.23112 v 12.36426 h -4.9833 v -23.97632 h 4.6072 l 0.141,3.14983 h 0.3761 q 0.8462,-1.78647 2.6327,-2.6327 1.8335,-0.89323 4.9833,-0.89323 3.2909,0 4.9833,1.03427 1.6925,1.03427 2.2566,3.00879 0.6112,1.92751 0.6112,5.31241 v 14.99695 h -4.9833 z"
           style="font-style:normal;font-variant:normal;font-weight:500;font-stretch:normal;font-family:Saira;-inkscape-font-specification:'Saira Medium'"
           id="path1046" />
        <path
           d="m 3083.7461,691.30075 h -15.6551 q 0,2.86776 0.3761,4.09008 0.4231,1.17531 1.8804,1.64543 1.5044,0.47013 5.0304,0.47013 3.1028,0 7.4279,-0.47013 v 4.13709 q -1.5514,0.32909 -3.949,0.51714 -2.3976,0.18805 -4.6542,0.18805 -5.0304,0 -7.381,-1.1283 -2.3506,-1.17531 -3.0558,-3.66696 -0.7052,-2.49166 -0.7052,-7.52199 0,-4.79526 0.7052,-7.33393 0.7052,-2.53867 3.0088,-3.80801 2.3036,-1.26933 7.0989,-1.26933 4.6072,0 6.6757,1.26933 2.1156,1.26934 2.6327,3.71398 0.5642,2.39763 0.5642,7.42796 z m -10.0137,-9.77858 q -2.5386,0 -3.7139,0.51714 -1.1283,0.47012 -1.5044,1.69244 -0.3761,1.22233 -0.4231,3.94905 h 10.9068 v -0.094 q 0,-2.67971 -0.4701,-3.94904 -0.4701,-1.26934 -1.5514,-1.69245 -1.0343,-0.42311 -3.2439,-0.42311 z"
           style="font-style:normal;font-variant:normal;font-weight:500;font-stretch:normal;font-family:Saira;-inkscape-font-specification:'Saira Medium'"
           id="path1048" />
        <path
           d="m 3105.2306,701.50244 -6.1586,-8.32119 h -0.2821 l -6.1586,8.32119 h -5.3594 l 8.7443,-12.17621 -8.4622,-11.80011 h 5.6415 l 5.8295,7.94509 h 0.2821 l 5.8295,-7.94509 h 5.3594 l -8.4152,11.7531 8.7913,12.22322 z"
           style="font-style:normal;font-variant:normal;font-weight:500;font-stretch:normal;font-family:Saira;-inkscape-font-specification:'Saira Medium'"
           id="path1050" />
        <path
           d="m 3117.9239,701.50244 v -19.55716 h -4.7953 v -4.41916 h 4.7953 v -6.95784 h 4.9833 v 6.95784 h 5.5945 v 4.41916 h -5.5945 v 19.55716 z"
           style="font-style:normal;font-variant:normal;font-weight:500;font-stretch:normal;font-family:Saira;-inkscape-font-specification:'Saira Medium'"
           id="path1052" />
        <path
           d="m 3153.7002,711.187 q -2.3036,0 -4.6542,-0.14104 -2.3036,-0.14104 -3.667,-0.32909 v -4.13709 q 3.9491,0.18805 7.1459,0.18805 3.4789,0 4.9833,-0.56415 1.5044,-0.51713 1.9275,-1.92751 0.4701,-1.36336 0.4701,-4.5602 v -1.22232 h -0.235 q -0.9403,1.78647 -2.7737,2.49165 -1.7865,0.65818 -4.5602,0.65818 -3.2909,0 -5.1244,-1.08129 -1.8335,-1.08128 -2.6327,-3.66696 -0.7992,-2.58569 -0.7992,-7.38095 0,-4.84228 0.7992,-7.47497 0.7992,-2.67971 2.6327,-3.76099 1.8805,-1.1283 5.1714,-1.1283 2.5856,0 4.5132,0.7522 1.9745,0.75219 2.9617,2.77373 h 0.2821 l 0.1881,-3.14983 h 4.5602 v 21.06155 q 0,4.98332 -0.7522,7.52199 -0.7052,2.58568 -3.1029,3.808 -2.3506,1.26934 -7.3339,1.26934 z m 0.7052,-14.15074 q 1.8805,0 3.0088,-0.42311 1.1283,-0.47012 1.6924,-1.36336 0.5172,-0.84622 0.6582,-2.11556 0.141,-1.31634 0.141,-3.66696 0,-2.35062 -0.141,-3.61996 -0.141,-1.31635 -0.6582,-2.16257 -0.5641,-0.94025 -1.6924,-1.36336 -1.1283,-0.47012 -3.0088,-0.47012 -2.6327,0 -3.761,0.51713 -1.0813,0.47013 -1.4574,1.97452 -0.3761,1.5044 -0.3761,5.12436 0,3.57294 0.3761,5.07734 0.3761,1.50439 1.4574,2.02153 1.1283,0.47012 3.761,0.47012 z"
           style="font-style:normal;font-variant:normal;font-weight:500;font-stretch:normal;font-family:Saira;-inkscape-font-specification:'Saira Medium'"
           id="path1054" />
        <path
           d="m 3192.1093,691.30075 h -15.6551 q 0,2.86776 0.3761,4.09008 0.4231,1.17531 1.8805,1.64543 1.5044,0.47013 5.0303,0.47013 3.1028,0 7.428,-0.47013 v 4.13709 q -1.5514,0.32909 -3.9491,0.51714 -2.3976,0.18805 -4.6542,0.18805 -5.0303,0 -7.3809,-1.1283 -2.3507,-1.17531 -3.0559,-3.66696 -0.7051,-2.49166 -0.7051,-7.52199 0,-4.79526 0.7051,-7.33393 0.7052,-2.53867 3.0088,-3.80801 2.3036,-1.26933 7.0989,-1.26933 4.6072,0 6.6758,1.26933 2.1155,1.26934 2.6327,3.71398 0.5641,2.39763 0.5641,7.42796 z m -10.0136,-9.77858 q -2.5387,0 -3.714,0.51714 -1.1283,0.47012 -1.5044,1.69244 -0.3761,1.22233 -0.4231,3.94905 h 10.9069 v -0.094 q 0,-2.67971 -0.4702,-3.94904 -0.4701,-1.26934 -1.5514,-1.69245 -1.0342,-0.42311 -3.2438,-0.42311 z"
           style="font-style:normal;font-variant:normal;font-weight:500;font-stretch:normal;font-family:Saira;-inkscape-font-specification:'Saira Medium'"
           id="path1056" />
        <path
           d="m 3214.2521,688.62104 q 0,-3.24385 -0.3291,-4.5602 -0.3291,-1.36336 -1.3164,-1.73946 -0.9872,-0.42311 -3.4319,-0.42311 -2.4446,0 -3.6669,0.7522 -1.1753,0.7522 -1.5514,2.25659 -0.3291,1.45739 -0.3291,4.23112 v 12.36426 h -4.9833 v -23.97632 h 4.6072 l 0.141,3.14983 h 0.3761 q 0.8462,-1.78647 2.6327,-2.6327 1.8335,-0.89323 4.9833,-0.89323 3.2909,0 4.9833,1.03427 1.6925,1.03427 2.2566,3.00879 0.6112,1.92751 0.6112,5.31241 v 14.99695 h -4.9833 z"
           style="font-style:normal;font-variant:normal;font-weight:500;font-stretch:normal;font-family:Saira;-inkscape-font-specification:'Saira Medium'"
           id="path1058" />
        <path
           d="m 3246.4555,691.30075 h -15.6552 q 0,2.86776 0.3761,4.09008 0.4232,1.17531 1.8805,1.64543 1.5044,0.47013 5.0304,0.47013 3.1028,0 7.4279,-0.47013 v 4.13709 q -1.5514,0.32909 -3.949,0.51714 -2.3976,0.18805 -4.6542,0.18805 -5.0304,0 -7.381,-1.1283 -2.3506,-1.17531 -3.0558,-3.66696 -0.7052,-2.49166 -0.7052,-7.52199 0,-4.79526 0.7052,-7.33393 0.7052,-2.53867 3.0088,-3.80801 2.3036,-1.26933 7.0989,-1.26933 4.6072,0 6.6757,1.26933 2.1156,1.26934 2.6327,3.71398 0.5642,2.39763 0.5642,7.42796 z m -10.0137,-9.77858 q -2.5386,0 -3.7139,0.51714 -1.1283,0.47012 -1.5044,1.69244 -0.3761,1.22233 -0.4232,3.94905 h 10.9069 v -0.094 q 0,-2.67971 -0.4701,-3.94904 -0.4701,-1.26934 -1.5514,-1.69245 -1.0343,-0.42311 -3.2439,-0.42311 z"
           style="font-style:normal;font-variant:normal;font-weight:500;font-stretch:normal;font-family:Saira;-inkscape-font-specification:'Saira Medium'"
           id="path1060" />
        <path
           d="m 3252.9901,677.52612 h 4.5602 l 0.1881,4.27813 h 0.3761 q 0.8462,-2.6327 2.7267,-3.61996 1.9275,-1.03427 5.1243,-1.03427 v 5.17136 q -3.1968,0 -4.9363,0.94025 -1.6924,0.89324 -2.3976,2.86776 -0.6582,1.9275 -0.6582,5.40642 v 9.96663 h -4.9833 z"
           style="font-style:normal;font-variant:normal;font-weight:500;font-stretch:normal;font-family:Saira;-inkscape-font-specification:'Saira Medium'"
           id="path1062" />
        <path
           d="m 3276.5433,701.87854 q -3.8551,0 -5.6885,-1.59842 -1.7865,-1.59842 -1.7865,-5.45344 0,-2.82074 0.6582,-4.37215 0.6581,-1.59842 2.2566,-2.30361 1.5984,-0.7522 4.5131,-0.7522 2.6798,0 8.1332,0.18805 v -1.03427 q 0,-2.39763 -0.5171,-3.3849 -0.4702,-1.03427 -1.7865,-1.31634 -1.3164,-0.28208 -4.5602,-0.28208 -1.5514,0 -3.808,0.14104 -2.2566,0.14104 -3.3379,0.32909 v -4.18411 q 3.949,-0.70518 8.8853,-0.70518 4.4192,0 6.5348,0.98726 2.1625,0.94025 2.8677,2.91477 0.7052,1.97452 0.7052,5.6885 v 14.76189 h -4.5602 l -0.188,-3.0558 h -0.2821 q -1.0813,2.06854 -3.1969,2.77373 -2.1155,0.65817 -4.8422,0.65817 z m 2.2566,-4.27813 q 1.9275,0 3.1498,-0.3761 1.2223,-0.42311 1.8335,-1.41037 0.8462,-1.41037 0.8462,-4.13709 v -0.70519 h -6.8638 q -1.6455,0 -2.4447,0.23507 -0.7522,0.23506 -1.0813,0.94024 -0.282,0.70519 -0.282,2.16257 0,1.45739 0.3291,2.16257 0.3761,0.65818 1.3633,0.89324 0.9873,0.23506 3.1499,0.23506 z"
           style="font-style:normal;font-variant:normal;font-weight:500;font-stretch:normal;font-family:Saira;-inkscape-font-specification:'Saira Medium'"
           id="path1064" />
        <path
           d="m 3299.0151,701.50244 v -19.55716 h -4.7953 v -4.41916 h 4.7953 v -6.95784 h 4.9833 v 6.95784 h 5.5945 v 4.41916 h -5.5945 v 19.55716 z"
           style="font-style:normal;font-variant:normal;font-weight:500;font-stretch:normal;font-family:Saira;-inkscape-font-specification:'Saira Medium'"
           id="path1066" />
        <path
           d="m 3314.3881,671.64957 v -5.07734 h 5.2183 v 5.07734 z m 0.094,29.85287 v -23.97632 h 4.9833 v 23.97632 z"
           style="font-style:normal;font-variant:normal;font-weight:500;font-stretch:normal;font-family:Saira;-inkscape-font-specification:'Saira Medium'"
           id="path1068" />
        <path
           d="m 3336.7659,701.87854 q -5.0773,0 -7.3339,-1.03427 -2.2096,-1.08129 -2.8207,-3.47892 -0.6112,-2.44464 -0.6112,-7.89808 0,-5.40643 0.6112,-7.80406 0.6111,-2.44465 2.8207,-3.47892 2.2566,-1.03427 7.3339,-1.03427 5.0774,0 7.287,1.03427 2.2566,1.03427 2.8677,3.47892 0.6112,2.39763 0.6112,7.80406 0,5.45344 -0.6112,7.89808 -0.6111,2.39763 -2.8677,3.47892 -2.2096,1.03427 -7.287,1.03427 z m 0,-4.41917 q 2.9618,0 4.0901,-0.51713 1.1283,-0.56415 1.3634,-2.02153 0.282,-1.45739 0.282,-5.45344 0,-3.99606 -0.282,-5.40643 -0.2351,-1.45738 -1.3634,-1.97452 -1.1283,-0.51714 -4.0901,-0.51714 -2.9617,0 -4.09,0.51714 -1.1283,0.51714 -1.4104,1.97452 -0.2351,1.41037 -0.2351,5.40643 0,3.99605 0.2351,5.45344 0.2821,1.45738 1.4104,2.02153 1.1283,0.51713 4.09,0.51713 z"
           style="font-style:normal;font-variant:normal;font-weight:500;font-stretch:normal;font-family:Saira;-inkscape-font-specification:'Saira Medium'"
           id="path1070" />
        <path
           d="m 3369.6275,688.62104 q 0,-3.24385 -0.3291,-4.5602 -0.329,-1.36336 -1.3163,-1.73946 -0.9873,-0.42311 -3.4319,-0.42311 -2.4447,0 -3.667,0.7522 -1.1753,0.7522 -1.5514,2.25659 -0.3291,1.45739 -0.3291,4.23112 v 12.36426 h -4.9833 v -23.97632 h 4.6072 l 0.1411,3.14983 h 0.3761 q 0.8462,-1.78647 2.6327,-2.6327 1.8334,-0.89323 4.9833,-0.89323 3.2908,0 4.9833,1.03427 1.6924,1.03427 2.2566,3.00879 0.6111,1.92751 0.6111,5.31241 v 14.99695 h -4.9833 z"
           style="font-style:normal;font-variant:normal;font-weight:500;font-stretch:normal;font-family:Saira;-inkscape-font-specification:'Saira Medium'"
           id="path1072" />
        <path
           d="m 3403.0062,701.87854 q -4.9363,0 -7.0519,-0.98726 -2.1155,-0.98726 -2.7267,-3.38489 -0.5641,-2.44465 -0.5641,-7.99211 0,-5.54746 0.5641,-7.9451 0.6112,-2.44464 2.7267,-3.4319 2.1156,-0.98726 7.0519,-0.98726 4.9363,0 7.0518,0.98726 2.1156,0.98726 2.6798,3.4319 0.6111,2.39764 0.6111,7.9451 0,5.54746 -0.6111,7.99211 -0.5642,2.39763 -2.6798,3.38489 -2.1155,0.98726 -7.0518,0.98726 z m 0,-2.63269 q 3.808,0 5.2654,-0.65818 1.5044,-0.70518 1.8335,-2.49165 0.329,-1.78648 0.329,-6.58174 0,-4.79527 -0.329,-6.53472 -0.3291,-1.78648 -1.8335,-2.49166 -1.4574,-0.70519 -5.2654,-0.70519 -3.808,0 -5.3124,0.70519 -1.4574,0.70518 -1.8335,2.49166 -0.3291,1.73945 -0.3291,6.53472 0,4.79526 0.3291,6.58174 0.3761,1.78647 1.8335,2.49165 1.5044,0.65818 5.3124,0.65818 z"
           style="font-style:normal;font-variant:normal;font-weight:300;font-stretch:normal;font-family:Saira;-inkscape-font-specification:'Saira Light'"
           id="path1074" />
        <path
           d="m 3437.6073,687.44573 q 0,-3.47891 -0.4702,-4.98331 -0.4701,-1.55141 -1.8334,-2.06855 -1.3164,-0.51713 -4.2782,-0.51713 -3.3378,0 -4.9363,1.12829 -1.5514,1.08129 -1.9275,2.91477 -0.3761,1.83349 -0.3761,5.17137 v 12.41127 h -2.8677 v -23.97632 h 2.5386 l 0.1411,3.61995 h 0.235 q 0.7522,-1.88049 2.5857,-2.91477 1.8805,-1.08128 5.6415,-1.08128 3.5729,0 5.3594,0.94025 1.8335,0.94024 2.4447,2.91476 0.6111,1.92751 0.6111,5.45344 v 15.04397 h -2.8677 z"
           style="font-style:normal;font-variant:normal;font-weight:300;font-stretch:normal;font-family:Saira;-inkscape-font-specification:'Saira Light'"
           id="path1076" />
        <path
           d="m 3449.1723,701.50244 v -34.93021 h 2.8678 v 34.93021 z"
           style="font-style:normal;font-variant:normal;font-weight:300;font-stretch:normal;font-family:Saira;-inkscape-font-specification:'Saira Light'"
           id="path1078" />
        <path
           d="m 3460.5963,670.28621 v -3.71398 h 3.1968 v 3.71398 z m 0.141,31.21623 v -23.97632 h 2.8678 v 23.97632 z"
           style="font-style:normal;font-variant:normal;font-weight:300;font-stretch:normal;font-family:Saira;-inkscape-font-specification:'Saira Light'"
           id="path1080" />
        <path
           d="m 3488.9917,687.44573 q 0,-3.47891 -0.4702,-4.98331 -0.4701,-1.55141 -1.8334,-2.06855 -1.3164,-0.51713 -4.2782,-0.51713 -3.3378,0 -4.9363,1.12829 -1.5514,1.08129 -1.9275,2.91477 -0.3761,1.83349 -0.3761,5.17137 v 12.41127 h -2.8677 v -23.97632 h 2.5386 l 0.1411,3.61995 h 0.235 q 0.7522,-1.88049 2.5857,-2.91477 1.8805,-1.08128 5.6415,-1.08128 3.5729,0 5.3594,0.94025 1.8335,0.94024 2.4447,2.91476 0.6111,1.92751 0.6111,5.45344 v 15.04397 h -2.8677 z"
           style="font-style:normal;font-variant:normal;font-weight:300;font-stretch:normal;font-family:Saira;-inkscape-font-specification:'Saira Light'"
           id="path1082" />
        <path
           d="m 3519.3147,690.54855 h -16.9715 q 0,3.90203 0.5171,5.64149 0.5172,1.69245 2.1626,2.39763 1.6924,0.65818 5.5475,0.65818 1.7864,0 3.996,-0.14104 2.2096,-0.18805 3.808,-0.42311 v 2.53867 q -1.4104,0.32908 -3.761,0.47012 -2.3036,0.18805 -4.6072,0.18805 -4.7012,0 -6.9108,-1.08128 -2.2096,-1.08129 -2.9148,-3.57295 -0.7052,-2.49165 -0.7052,-7.66302 0,-5.17136 0.6112,-7.61601 0.6112,-2.44464 2.7737,-3.61995 2.2096,-1.17531 7.0989,-1.17531 4.3722,0 6.3467,1.1283 1.9745,1.12829 2.4916,3.57294 0.5172,2.44464 0.5172,7.66302 z m -9.4965,-10.76584 q -3.479,0 -4.9834,0.61116 -1.5043,0.61116 -1.9745,2.30361 -0.4701,1.69245 -0.5171,5.54746 h 14.1977 v -0.65817 q 0,-3.52593 -0.6111,-5.12435 -0.5642,-1.64544 -1.9275,-2.16257 -1.3634,-0.51714 -4.1841,-0.51714 z"
           style="font-style:normal;font-variant:normal;font-weight:300;font-stretch:normal;font-family:Saira;-inkscape-font-specification:'Saira Light'"
           id="path1084" />
        <path
           d="m 3537.5555,670.28621 v -3.71398 h 3.1968 v 3.71398 z m -4.4662,38.17407 q 2.1155,0 3.0558,-0.23507 0.9872,-0.23506 1.2693,-0.75219 0.2821,-0.51714 0.2821,-1.64544 v -28.30146 h 2.8677 v 27.59628 q 0,2.6797 -0.7522,3.85501 -0.7051,1.22233 -2.2095,1.55141 -1.4574,0.3761 -4.5132,0.3761 z"
           style="font-style:normal;font-variant:normal;font-weight:300;font-stretch:normal;font-family:Saira;-inkscape-font-specification:'Saira Light'"
           id="path1086" />
        <path
           d="m 3566.1859,697.88249 h -0.2821 q -0.7052,1.88049 -2.5857,2.96178 -1.8334,1.03427 -5.5944,1.03427 -3.573,0 -5.4065,-0.94025 -1.7864,-0.94025 -2.4446,-2.86775 -0.6112,-1.97452 -0.6112,-5.50045 v -15.04397 h 2.8678 v 14.0567 q 0,3.47892 0.4701,5.03033 0.5172,1.5044 1.8335,2.02153 1.3163,0.51714 4.3251,0.51714 3.3379,0 4.8893,-1.08128 1.5514,-1.1283 1.9275,-2.91477 0.3761,-1.83349 0.3761,-5.21838 v -12.41127 h 2.8678 v 23.97632 h -2.4917 z"
           style="font-style:normal;font-variant:normal;font-weight:300;font-stretch:normal;font-family:Saira;-inkscape-font-specification:'Saira Light'"
           id="path1088" />
        <path
           d="m 3585.555,701.87854 q -3.808,0 -5.7355,-1.03427 -1.8805,-1.03428 -2.6327,-3.61996 -0.7522,-2.63269 -0.7522,-7.71003 0,-5.07734 0.7522,-7.66302 0.7522,-2.58568 2.6327,-3.61996 1.9275,-1.08128 5.6885,-1.08128 3.2909,0 5.2184,0.84622 1.9745,0.79921 2.8677,2.72672 h 0.2351 v -14.15073 h 2.8677 v 34.93021 h -2.4916 l -0.1881,-3.57294 h -0.235 q -0.9403,2.35062 -3.0558,3.14983 -2.0686,0.79921 -5.1714,0.79921 z m 1.0343,-2.72672 q 5.4534,0 6.5347,-3.00879 0.4701,-1.31635 0.5642,-2.82075 0.141,-1.55141 0.141,-4.23111 0,-2.11556 -0.141,-3.43191 -0.094,-1.36336 -0.4702,-2.39763 -0.6581,-1.78647 -2.3036,-2.58568 -1.5984,-0.79921 -4.4662,-0.79921 -3.2908,0 -4.7482,0.65817 -1.4104,0.65817 -1.9275,2.63269 -0.4701,1.92751 -0.4701,6.34668 0,4.46618 0.5171,6.39369 0.5171,1.9275 1.9745,2.58568 1.4574,0.65817 4.7953,0.65817 z"
           style="font-style:normal;font-variant:normal;font-weight:300;font-stretch:normal;font-family:Saira;-inkscape-font-specification:'Saira Light'"
           id="path1090" />
        <path
           d="m 3613.9975,711.187 q -4.6543,0 -8.6033,-0.3761 v -2.58569 q 4.2781,0.32909 8.0391,0.32909 3.761,0 5.4535,-0.79921 1.6924,-0.7522 2.2095,-2.67971 0.5642,-1.9275 0.5642,-6.01758 v -0.84623 h -0.2351 q -0.8462,1.92751 -2.8207,2.77373 -1.9745,0.79922 -5.2184,0.79922 -3.808,0 -5.7355,-1.03428 -1.8805,-1.03427 -2.6327,-3.57294 -0.7522,-2.58568 -0.7522,-7.66302 0,-5.07734 0.7522,-7.66302 0.7522,-2.6327 2.6327,-3.66697 1.9275,-1.03427 5.7355,-1.03427 3.1028,0 5.1714,0.84622 2.1155,0.79921 3.0558,3.14983 h 0.235 l 0.1881,-3.61995 h 2.4916 v 20.77948 q 0,5.17136 -0.7522,7.80406 -0.7051,2.63269 -2.9617,3.85501 -2.2096,1.22233 -6.8168,1.22233 z m 0.4231,-12.1292 q 2.7267,0 4.2781,-0.70519 1.5984,-0.7522 2.2096,-2.30361 0.4701,-1.12829 0.6112,-2.58568 0.141,-1.45738 0.141,-3.94904 0,-2.44465 -0.141,-3.85502 -0.094,-1.45738 -0.5172,-2.49166 -0.6582,-1.73945 -2.2566,-2.49165 -1.5984,-0.79921 -4.3251,-0.79921 -3.3379,0 -4.7953,0.65817 -1.4574,0.65817 -1.9745,2.63269 -0.5171,1.92751 -0.5171,6.34668 0,4.41916 0.5171,6.34667 0.5171,1.8805 1.9745,2.53867 1.4574,0.65818 4.7953,0.65818 z"
           style="font-style:normal;font-variant:normal;font-weight:300;font-stretch:normal;font-family:Saira;-inkscape-font-specification:'Saira Light'"
           id="path1092" />
        <path
           d="m 3651.9364,690.54855 h -16.9714 q 0,3.90203 0.5171,5.64149 0.5171,1.69245 2.1626,2.39763 1.6924,0.65818 5.5474,0.65818 1.7865,0 3.9961,-0.14104 2.2096,-0.18805 3.808,-0.42311 v 2.53867 q -1.4104,0.32908 -3.761,0.47012 -2.3036,0.18805 -4.6072,0.18805 -4.7013,0 -6.9108,-1.08128 -2.2096,-1.08129 -2.9148,-3.57295 -0.7052,-2.49165 -0.7052,-7.66302 0,-5.17136 0.6112,-7.61601 0.6111,-2.44464 2.7737,-3.61995 2.2096,-1.17531 7.0989,-1.17531 4.3721,0 6.3466,1.1283 1.9746,1.12829 2.4917,3.57294 0.5171,2.44464 0.5171,7.66302 z m -9.4965,-10.76584 q -3.4789,0 -4.9833,0.61116 -1.5044,0.61116 -1.9745,2.30361 -0.4701,1.69245 -0.5171,5.54746 h 14.1977 v -0.65817 q 0,-3.52593 -0.6112,-5.12435 -0.5641,-1.64544 -1.9275,-2.16257 -1.3633,-0.51714 -4.1841,-0.51714 z"
           style="font-style:normal;font-variant:normal;font-weight:300;font-stretch:normal;font-family:Saira;-inkscape-font-specification:'Saira Light'"
           id="path1094" />
        <path
           d="m 3677.9813,701.87854 q -1.9275,0 -4.3252,-0.18805 -2.3976,-0.14104 -4.1371,-0.3761 v -2.58568 q 2.7738,0.28207 4.5602,0.42311 1.8335,0.094 4.0431,0.094 2.5387,0 3.761,-0.3761 1.2223,-0.42311 1.5984,-1.26934 0.3761,-0.89323 0.3761,-2.58568 0,-1.73946 -0.282,-2.53867 -0.2821,-0.79921 -0.9403,-1.03427 -0.6112,-0.28208 -2.0685,-0.42311 l -6.5348,-0.65818 q -2.1155,-0.23506 -3.2438,-0.89323 -1.1283,-0.70519 -1.5984,-1.92751 -0.4232,-1.26934 -0.4232,-3.43191 0,-3.0558 1.0343,-4.5602 1.0813,-1.5044 3.0088,-1.92751 1.9275,-0.47012 5.2184,-0.47012 1.6924,0 3.714,0.18805 2.0685,0.18805 3.5729,0.42311 v 2.58568 q -3.4319,-0.56415 -7.663,-0.56415 -2.2566,0 -3.4789,0.23506 -1.1753,0.23507 -1.8805,1.1283 -0.7052,0.84622 -0.7052,2.72672 0,1.59842 0.2821,2.35062 0.282,0.70519 0.9402,0.98726 0.6582,0.28208 2.0686,0.42311 l 6.5817,0.70519 q 2.1156,0.23506 3.1498,0.79921 1.0813,0.51714 1.5514,1.83348 0.4702,1.31635 0.4702,3.99606 0,2.86775 -0.9403,4.37215 -0.8932,1.45739 -2.7267,2.02153 -1.7865,0.51714 -4.9833,0.51714 z"
           style="font-style:normal;font-variant:normal;font-weight:300;font-stretch:normal;font-family:Saira;-inkscape-font-specification:'Saira Light'"
           id="path1096" />
        <path
           d="m 3702.7567,711.187 q -4.8893,0 -8.0391,-0.3761 v -2.53867 q 4.2781,0.28207 7.475,0.28207 3.761,0 5.5004,-0.89323 1.7395,-0.84623 2.2566,-2.67971 0.5172,-1.78647 0.5172,-5.45344 v -1.36336 h -0.2351 q -0.6582,1.64543 -2.4917,2.6327 -1.7864,0.98726 -5.5004,0.98726 -3.5729,0 -5.4064,-0.94025 -1.7865,-0.94025 -2.4447,-2.86776 -0.6111,-1.92751 -0.6111,-5.45344 v -14.99695 h 2.8677 v 14.00969 q 0,3.47892 0.4701,5.03033 0.5172,1.5044 1.8335,2.02153 1.3164,0.47013 4.3252,0.47013 3.3378,0 4.8893,-1.08129 1.5514,-1.08128 1.9275,-2.86776 0.3761,-1.83348 0.3761,-5.21837 v -12.36426 h 2.8677 v 20.96753 q 0,5.03032 -0.7992,7.61601 -0.7522,2.63269 -3.0088,3.85501 -2.2096,1.22233 -6.7698,1.22233 z"
           style="font-style:normal;font-variant:normal;font-weight:300;font-stretch:normal;font-family:Saira;-inkscape-font-specification:'Saira Light'"
           id="path1098" />
        <path
           d="m 3729.6948,701.87854 q -1.9275,0 -4.3251,-0.18805 -2.3976,-0.14104 -4.1371,-0.3761 v -2.58568 q 2.7737,0.28207 4.5602,0.42311 1.8335,0.094 4.0431,0.094 2.5386,0 3.761,-0.3761 1.2223,-0.42311 1.5984,-1.26934 0.3761,-0.89323 0.3761,-2.58568 0,-1.73946 -0.2821,-2.53867 -0.2821,-0.79921 -0.9402,-1.03427 -0.6112,-0.28208 -2.0686,-0.42311 l -6.5347,-0.65818 q -2.1156,-0.23506 -3.2439,-0.89323 -1.1283,-0.70519 -1.5984,-1.92751 -0.4231,-1.26934 -0.4231,-3.43191 0,-3.0558 1.0343,-4.5602 1.0813,-1.5044 3.0088,-1.92751 1.9275,-0.47012 5.2184,-0.47012 1.6924,0 3.7139,0.18805 2.0686,0.18805 3.573,0.42311 v 2.58568 q -3.4319,-0.56415 -7.663,-0.56415 -2.2566,0 -3.479,0.23506 -1.1753,0.23507 -1.8805,1.1283 -0.7051,0.84622 -0.7051,2.72672 0,1.59842 0.282,2.35062 0.2821,0.70519 0.9403,0.98726 0.6581,0.28208 2.0685,0.42311 l 6.5818,0.70519 q 2.1155,0.23506 3.1498,0.79921 1.0813,0.51714 1.5514,1.83348 0.4701,1.31635 0.4701,3.99606 0,2.86775 -0.9402,4.37215 -0.8933,1.45739 -2.7267,2.02153 -1.7865,0.51714 -4.9834,0.51714 z"
           style="font-style:normal;font-variant:normal;font-weight:300;font-stretch:normal;font-family:Saira;-inkscape-font-specification:'Saira Light'"
           id="path1100" />
        <path
           d="m 3747.1833,701.50244 v -21.34363 h -4.9363 v -2.63269 h 4.9363 v -6.95784 h 2.8678 v 6.95784 h 5.7825 v 2.63269 h -5.7825 v 21.34363 z"
           style="font-style:normal;font-variant:normal;font-weight:300;font-stretch:normal;font-family:Saira;-inkscape-font-specification:'Saira Light'"
           id="path1102" />
        <path
           d="m 3779.9979,690.54855 h -16.9715 q 0,3.90203 0.5172,5.64149 0.5171,1.69245 2.1625,2.39763 1.6925,0.65818 5.5475,0.65818 1.7865,0 3.996,-0.14104 2.2096,-0.18805 3.808,-0.42311 v 2.53867 q -1.4103,0.32908 -3.7609,0.47012 -2.3037,0.18805 -4.6073,0.18805 -4.7012,0 -6.9108,-1.08128 -2.2096,-1.08129 -2.9148,-3.57295 -0.7051,-2.49165 -0.7051,-7.66302 0,-5.17136 0.6111,-7.61601 0.6112,-2.44464 2.7738,-3.61995 2.2095,-1.17531 7.0988,-1.17531 4.3722,0 6.3467,1.1283 1.9745,1.12829 2.4917,3.57294 0.5171,2.44464 0.5171,7.66302 z m -9.4965,-10.76584 q -3.4789,0 -4.9833,0.61116 -1.5044,0.61116 -1.9745,2.30361 -0.4702,1.69245 -0.5172,5.54746 h 14.1978 v -0.65817 q 0,-3.52593 -0.6112,-5.12435 -0.5641,-1.64544 -1.9275,-2.16257 -1.3634,-0.51714 -4.1841,-0.51714 z"
           style="font-style:normal;font-variant:normal;font-weight:300;font-stretch:normal;font-family:Saira;-inkscape-font-specification:'Saira Light'"
           id="path1104" />
        <path
           d="m 3817.7018,687.44573 q 0,-3.47891 -0.4231,-4.98331 -0.4231,-1.55141 -1.5984,-2.06855 -1.1283,-0.51713 -3.761,-0.51713 -3.0088,0 -4.3722,1.03427 -1.3633,1.03427 -1.6924,2.86776 -0.3291,1.78647 -0.3291,5.3124 v 12.41127 h -2.8678 v -14.05671 q 0,-3.47891 -0.4231,-4.98331 -0.4231,-1.55141 -1.5984,-2.06855 -1.1283,-0.51713 -3.761,-0.51713 -2.9618,0 -4.3721,1.12829 -1.3634,1.08129 -1.7395,2.91477 -0.3291,1.83349 -0.3291,5.17137 v 12.41127 h -2.8677 v -23.97632 h 2.5386 l 0.1411,3.61995 h 0.235 q 0.6582,-1.88049 2.3506,-2.91477 1.6925,-1.08128 5.0774,-1.08128 3.2908,0 4.8893,0.94025 1.6454,0.94024 2.2566,3.0558 h 0.282 q 0.6582,-1.88049 2.3977,-2.91477 1.7864,-1.08128 5.1713,-1.08128 3.2439,0 4.8893,0.94025 1.6455,0.94024 2.2096,2.91476 0.5642,1.92751 0.5642,5.45344 v 15.04397 h -2.8678 z"
           style="font-style:normal;font-variant:normal;font-weight:300;font-stretch:normal;font-family:Saira;-inkscape-font-specification:'Saira Light'"
           id="path1106" />
        <path
           d="m 3246.4319,767.5505 q -1.4574,0.23507 -3.6199,0.3761 -2.1156,0.18805 -3.9021,0.18805 -5.7825,0 -8.4152,-1.17531 -2.5857,-1.17531 -3.5259,-4.51319 -0.8933,-3.38489 -0.8933,-10.85986 0,-7.42796 0.8933,-10.76584 0.9402,-3.38489 3.5259,-4.5602 2.6327,-1.22233 8.4152,-1.22233 1.8335,0 3.855,0.18805 2.0686,0.18805 3.479,0.47013 v 2.63269 q -3.3849,-0.47012 -6.5818,-0.47012 -5.1713,0 -7.2399,0.84622 -2.0215,0.79921 -2.6797,3.47892 -0.6582,2.6797 -0.6582,9.40248 0,6.72277 0.6582,9.40248 0.6582,2.67971 2.6797,3.52593 2.0686,0.79921 7.2399,0.79921 3.714,0 6.7698,-0.47012 z"
           style="font-style:normal;font-variant:normal;font-weight:300;font-stretch:normal;font-size:47.0124px;font-family:Saira;-inkscape-font-specification:'Saira Light';text-align:center;text-anchor:middle;stroke-width:0.503704"
           id="path1108" />
        <path
           d="m 3262.8862,768.11465 q -4.9363,0 -7.0519,-0.98726 -2.1155,-0.98726 -2.7267,-3.38489 -0.5642,-2.44464 -0.5642,-7.99211 0,-5.54746 0.5642,-7.94509 0.6112,-2.44465 2.7267,-3.43191 2.1156,-0.98726 7.0519,-0.98726 4.9363,0 7.0518,0.98726 2.1156,0.98726 2.6797,3.43191 0.6112,2.39763 0.6112,7.94509 0,5.54747 -0.6112,7.99211 -0.5641,2.39763 -2.6797,3.38489 -2.1155,0.98726 -7.0518,0.98726 z m 0,-2.63269 q 3.808,0 5.2654,-0.65817 1.5044,-0.70519 1.8334,-2.49166 0.3291,-1.78647 0.3291,-6.58174 0,-4.79526 -0.3291,-6.53472 -0.329,-1.78647 -1.8334,-2.49166 -1.4574,-0.70519 -5.2654,-0.70519 -3.808,0 -5.3124,0.70519 -1.4574,0.70519 -1.8335,2.49166 -0.3291,1.73946 -0.3291,6.53472 0,4.79527 0.3291,6.58174 0.3761,1.78647 1.8335,2.49166 1.5044,0.65817 5.3124,0.65817 z"
           style="font-style:normal;font-variant:normal;font-weight:300;font-stretch:normal;font-size:47.0124px;font-family:Saira;-inkscape-font-specification:'Saira Light';text-align:center;text-anchor:middle;stroke-width:0.503704"
           id="path1110" />
        <path
           d="m 3310.9328,753.68185 q 0,-3.47892 -0.4231,-4.98332 -0.4231,-1.55141 -1.5984,-2.06854 -1.1283,-0.51714 -3.761,-0.51714 -3.0088,0 -4.3722,1.03427 -1.3633,1.03428 -1.6924,2.86776 -0.3291,1.78647 -0.3291,5.3124 v 12.41127 h -2.8678 v -14.0567 q 0,-3.47892 -0.4231,-4.98332 -0.4231,-1.55141 -1.5984,-2.06854 -1.1283,-0.51714 -3.761,-0.51714 -2.9618,0 -4.3721,1.1283 -1.3634,1.08128 -1.7395,2.91477 -0.3291,1.83348 -0.3291,5.17136 v 12.41127 h -2.8677 v -23.97632 h 2.5386 l 0.1411,3.61995 h 0.235 q 0.6582,-1.88049 2.3506,-2.91476 1.6925,-1.08129 5.0774,-1.08129 3.2908,0 4.8893,0.94025 1.6454,0.94025 2.2566,3.0558 h 0.282 q 0.6582,-1.88049 2.3977,-2.91476 1.7864,-1.08129 5.1713,-1.08129 3.2439,0 4.8893,0.94025 1.6455,0.94025 2.2096,2.91477 0.5642,1.92751 0.5642,5.45344 v 15.04396 h -2.8678 z"
           style="font-style:normal;font-variant:normal;font-weight:300;font-stretch:normal;font-size:47.0124px;font-family:Saira;-inkscape-font-specification:'Saira Light';text-align:center;text-anchor:middle;stroke-width:0.503704"
           id="path1112" />
        <path
           d="m 3322.3098,736.52232 v -3.71398 h 3.1968 v 3.71398 z m 0.141,31.21623 v -23.97632 h 2.8678 v 23.97632 z"
           style="font-style:normal;font-variant:normal;font-weight:300;font-stretch:normal;font-size:47.0124px;font-family:Saira;-inkscape-font-specification:'Saira Light';text-align:center;text-anchor:middle;stroke-width:0.503704"
           id="path1114" />
        <path
           d="m 3350.7052,753.68185 q 0,-3.47892 -0.4701,-4.98332 -0.4701,-1.55141 -1.8335,-2.06854 -1.3164,-0.51714 -4.2781,-0.51714 -3.3379,0 -4.9363,1.1283 -1.5514,1.08128 -1.9275,2.91477 -0.3761,1.83348 -0.3761,5.17136 v 12.41127 h -2.8678 v -23.97632 h 2.5387 l 0.141,3.61995 h 0.2351 q 0.7522,-1.88049 2.5857,-2.91476 1.8804,-1.08129 5.6414,-1.08129 3.573,0 5.3595,0.94025 1.8334,0.94025 2.4446,2.91477 0.6112,1.92751 0.6112,5.45344 v 15.04396 h -2.8678 z"
           style="font-style:normal;font-variant:normal;font-weight:300;font-stretch:normal;font-size:47.0124px;font-family:Saira;-inkscape-font-specification:'Saira Light';text-align:center;text-anchor:middle;stroke-width:0.503704"
           id="path1116" />
        <path
           d="m 3370.9205,777.42311 q -4.6542,0 -8.6032,-0.3761 v -2.58568 q 4.2781,0.32908 8.0391,0.32908 3.761,0 5.4534,-0.79921 1.6925,-0.75219 2.2096,-2.6797 0.5641,-1.92751 0.5641,-6.01759 v -0.84622 h -0.235 q -0.8462,1.9275 -2.8208,2.77373 -1.9745,0.79921 -5.2183,0.79921 -3.808,0 -5.7356,-1.03427 -1.8804,-1.03428 -2.6326,-3.57295 -0.7522,-2.58568 -0.7522,-7.66302 0,-5.07734 0.7522,-7.66302 0.7522,-2.63269 2.6326,-3.66697 1.9276,-1.03427 5.7356,-1.03427 3.1028,0 5.1713,0.84622 2.1156,0.79921 3.0558,3.14983 h 0.2351 l 0.188,-3.61995 h 2.4917 v 20.77948 q 0,5.17137 -0.7522,7.80406 -0.7052,2.63269 -2.9618,3.85502 -2.2096,1.22232 -6.8168,1.22232 z m 0.4231,-12.1292 q 2.7268,0 4.2782,-0.70519 1.5984,-0.75219 2.2095,-2.3036 0.4702,-1.1283 0.6112,-2.58569 0.141,-1.45738 0.141,-3.94904 0,-2.44464 -0.141,-3.85501 -0.094,-1.45739 -0.5171,-2.49166 -0.6582,-1.73946 -2.2566,-2.49166 -1.5984,-0.79921 -4.3252,-0.79921 -3.3378,0 -4.7952,0.65817 -1.4574,0.65818 -1.9746,2.6327 -0.5171,1.92751 -0.5171,6.34667 0,4.41917 0.5171,6.34668 0.5172,1.88049 1.9746,2.53867 1.4574,0.65817 4.7952,0.65817 z"
           style="font-style:normal;font-variant:normal;font-weight:300;font-stretch:normal;font-size:47.0124px;font-family:Saira;-inkscape-font-specification:'Saira Light';text-align:center;text-anchor:middle;stroke-width:0.503704"
           id="path1118" />
        <path
           d="m 3408.5774,768.11465 q -1.9275,0 -4.3251,-0.18805 -2.3977,-0.14103 -4.1371,-0.3761 v -2.58568 q 2.7737,0.28208 4.5602,0.42311 1.8335,0.094 4.043,0.094 2.5387,0 3.761,-0.3761 1.2223,-0.42311 1.5984,-1.26933 0.3761,-0.89324 0.3761,-2.58569 0,-1.73946 -0.282,-2.53867 -0.2821,-0.79921 -0.9403,-1.03427 -0.6111,-0.28207 -2.0685,-0.42311 l -6.5347,-0.65817 q -2.1156,-0.23507 -3.2439,-0.89324 -1.1283,-0.70519 -1.5984,-1.92751 -0.4231,-1.26933 -0.4231,-3.4319 0,-3.05581 1.0342,-4.56021 1.0813,-1.50439 3.0088,-1.92751 1.9275,-0.47012 5.2184,-0.47012 1.6925,0 3.714,0.18805 2.0685,0.18805 3.5729,0.42311 v 2.58568 q -3.4319,-0.56415 -7.663,-0.56415 -2.2566,0 -3.4789,0.23507 -1.1753,0.23506 -1.8805,1.12829 -0.7052,0.84623 -0.7052,2.72672 0,1.59843 0.2821,2.35062 0.2821,0.70519 0.9402,0.98726 0.6582,0.28208 2.0686,0.42312 l 6.5817,0.70518 q 2.1156,0.23506 3.1498,0.79921 1.0813,0.51714 1.5515,1.83349 0.4701,1.31634 0.4701,3.99605 0,2.86776 -0.9403,4.37215 -0.8932,1.45739 -2.7267,2.02154 -1.7865,0.51713 -4.9833,0.51713 z"
           style="font-style:normal;font-variant:normal;font-weight:300;font-stretch:normal;font-size:47.0124px;font-family:Saira;-inkscape-font-specification:'Saira Light';text-align:center;text-anchor:middle;stroke-width:0.503704"
           id="path1120" />
        <path
           d="m 3433.6349,768.11465 q -4.9363,0 -7.0518,-0.98726 -2.1156,-0.98726 -2.7267,-3.38489 -0.5642,-2.44464 -0.5642,-7.99211 0,-5.54746 0.5642,-7.94509 0.6111,-2.44465 2.7267,-3.43191 2.1155,-0.98726 7.0518,-0.98726 4.9363,0 7.0519,0.98726 2.1156,0.98726 2.6797,3.43191 0.6112,2.39763 0.6112,7.94509 0,5.54747 -0.6112,7.99211 -0.5641,2.39763 -2.6797,3.38489 -2.1156,0.98726 -7.0519,0.98726 z m 0,-2.63269 q 3.808,0 5.2654,-0.65817 1.5044,-0.70519 1.8335,-2.49166 0.3291,-1.78647 0.3291,-6.58174 0,-4.79526 -0.3291,-6.53472 -0.3291,-1.78647 -1.8335,-2.49166 -1.4574,-0.70519 -5.2654,-0.70519 -3.808,0 -5.3124,0.70519 -1.4573,0.70519 -1.8334,2.49166 -0.3291,1.73946 -0.3291,6.53472 0,4.79527 0.3291,6.58174 0.3761,1.78647 1.8334,2.49166 1.5044,0.65817 5.3124,0.65817 z"
           style="font-style:normal;font-variant:normal;font-weight:300;font-stretch:normal;font-size:47.0124px;font-family:Saira;-inkscape-font-specification:'Saira Light';text-align:center;text-anchor:middle;stroke-width:0.503704"
           id="path1122" />
        <path
           d="m 3460.8081,768.11465 q -4.9363,0 -7.0519,-0.98726 -2.1156,-0.98726 -2.7267,-3.38489 -0.5642,-2.44464 -0.5642,-7.99211 0,-5.54746 0.5642,-7.94509 0.6111,-2.44465 2.7267,-3.43191 2.1156,-0.98726 7.0519,-0.98726 4.9363,0 7.0518,0.98726 2.1156,0.98726 2.6797,3.43191 0.6112,2.39763 0.6112,7.94509 0,5.54747 -0.6112,7.99211 -0.5641,2.39763 -2.6797,3.38489 -2.1155,0.98726 -7.0518,0.98726 z m 0,-2.63269 q 3.808,0 5.2654,-0.65817 1.5044,-0.70519 1.8334,-2.49166 0.3291,-1.78647 0.3291,-6.58174 0,-4.79526 -0.3291,-6.53472 -0.329,-1.78647 -1.8334,-2.49166 -1.4574,-0.70519 -5.2654,-0.70519 -3.808,0 -5.3124,0.70519 -1.4574,0.70519 -1.8335,2.49166 -0.3291,1.73946 -0.3291,6.53472 0,4.79527 0.3291,6.58174 0.3761,1.78647 1.8335,2.49166 1.5044,0.65817 5.3124,0.65817 z"
           style="font-style:normal;font-variant:normal;font-weight:300;font-stretch:normal;font-size:47.0124px;font-family:Saira;-inkscape-font-specification:'Saira Light';text-align:center;text-anchor:middle;stroke-width:0.503704"
           id="path1124" />
        <path
           d="m 3495.4092,753.68185 q 0,-3.47892 -0.4702,-4.98332 -0.4701,-1.55141 -1.8335,-2.06854 -1.3163,-0.51714 -4.2781,-0.51714 -3.3379,0 -4.9363,1.1283 -1.5514,1.08128 -1.9275,2.91477 -0.3761,1.83348 -0.3761,5.17136 v 12.41127 h -2.8678 v -23.97632 h 2.5387 l 0.1411,3.61995 h 0.235 q 0.7522,-1.88049 2.5857,-2.91476 1.8805,-1.08129 5.6415,-1.08129 3.5729,0 5.3594,0.94025 1.8335,0.94025 2.4446,2.91477 0.6112,1.92751 0.6112,5.45344 v 15.04396 h -2.8677 z"
           style="font-style:normal;font-variant:normal;font-weight:300;font-stretch:normal;font-size:47.0124px;font-family:Saira;-inkscape-font-specification:'Saira Light';text-align:center;text-anchor:middle;stroke-width:0.503704"
           id="path1126" />
        <path
           d="m 3516.4707,767.73855 v -4.04306 h 3.4789 v 4.04306 z"
           style="font-style:normal;font-variant:normal;font-weight:300;font-stretch:normal;font-size:47.0124px;font-family:Saira;-inkscape-font-specification:'Saira Light';text-align:center;text-anchor:middle;stroke-width:0.503704"
           id="path1128" />
        <path
           d="m 3525.9672,767.73855 v -4.04306 h 3.4789 v 4.04306 z"
           style="font-style:normal;font-variant:normal;font-weight:300;font-stretch:normal;font-size:47.0124px;font-family:Saira;-inkscape-font-specification:'Saira Light';text-align:center;text-anchor:middle;stroke-width:0.503704"
           id="path1130" />
        <path
           d="m 3535.4637,767.73855 v -4.04306 h 3.4789 v 4.04306 z"
           style="font-style:normal;font-variant:normal;font-weight:300;font-stretch:normal;font-size:47.0124px;font-family:Saira;-inkscape-font-specification:'Saira Light';text-align:center;text-anchor:middle;stroke-width:0.503704"
           id="path1132" />
      </g>
      <g
         aria-label="我们正在进行系统维护
请稍后访问 ……"
         id="text906"
         style="font-style:normal;font-weight:normal;font-size:62.5px;line-height:1.25;font-family:sans-serif;fill:#000000;fill-opacity:1;stroke:none;stroke-width:0.9375">
        <path
           d="m 4380.5088,390.99207 c -2,-2.9375 -6.375,-7.3125 -9.9375,-10.375 l -3.5625,2.4375 c 3.625,3.1875 7.875,7.6875 9.75,10.625 z m -5.5625,13.625 c -2.125,4 -4.875,7.8125 -8.1875,11.375 -1.0625,-4.125 -1.9375,-8.9375 -2.5625,-14.25 h 17.875 v -4.4375 h -18.375 c -0.5,-5.5625 -0.75,-11.5625 -0.75,-17.8125 h -4.75 c 0.062,6.125 0.3125,12.125 0.875,17.8125 h -14.3125 v -10.875 c 3.8125,-0.8125 7.4375,-1.8125 10.4375,-2.875 l -3.3125,-3.8125 c -5.875,2.1875 -15.9375,4.3125 -24.6875,5.625 0.625,1.125 1.25,2.75 1.5,3.875 3.6875,-0.5 7.625,-1.125 11.5,-1.875 v 9.9375 h -13.375 v 4.4375 h 13.375 v 10.9375 c -5.4375,1.125 -10.5,2.1875 -14.25,2.8125 l 1.3125,4.6875 c 3.75,-0.8125 8.25,-1.875 12.9375,-2.875 v 12.6875 c 0,1.125 -0.375,1.4375 -1.5,1.4375 -1.0625,0.0625 -4.75,0.125 -8.75,-0.0625 0.6875,1.3125 1.5,3.4375 1.75,4.6875 5.0625,0 8.4375,-0.125 10.375,-0.875 1.9375,-0.75 2.6875,-2.125 2.6875,-5.125 v -13.875 c 3.8125,-0.875 7.6875,-1.75 11.5,-2.6875 l -0.3125,-4.1875 c -3.6875,0.8125 -7.5,1.625 -11.1875,2.4375 v -10 h 14.6875 c 0.8125,6.75 2,12.9375 3.5,18.125 -4.4375,4.125 -9.5625,7.5625 -14.8125,10.125 1.1875,1 2.5,2.5625 3.1875,3.6875 4.6875,-2.4375 9.125,-5.5625 13.1875,-9.1875 2.875,7.3125 6.625,11.6875 11.5625,11.6875 4.6875,0 6.3125,-3 7.1875,-13.3125 -1.3125,-0.4375 -2.9375,-1.5 -3.9375,-2.5 -0.375,8 -1.125,11.1875 -2.8125,11.1875 -3.125,0 -5.9375,-4 -8.3125,-10.5625 4.375,-4.4375 8.0625,-9.375 10.875,-14.6875 z"
           style="font-style:normal;font-variant:normal;font-weight:normal;font-stretch:normal;font-size:62.5px;font-family:'Noto Sans CJK SC';-inkscape-font-specification:'Noto Sans CJK SC';fill:#000000;fill-opacity:1;stroke-width:0.9375"
           id="path973" />
        <path
           d="m 4399.8837,379.30457 c -2.6875,9.5625 -6.875,19.125 -11.8125,25.4375 0.8125,1.0625 2.125,3.625 2.5,4.625 1.5,-1.9375 2.9375,-4.125 4.3125,-6.5625 v 33.1875 h 4.5 v -42.1875 c 1.8125,-4.25 3.5,-8.8125 4.75,-13.3125 z m 7,56.75 h 4.5 v -44.5625 h -4.5 z m 2.5625,-55.125 c 2.8125,3.8125 5.9375,9.0625 7.25,12.1875 l 3.8125,-2.1875 c -1.4375,-3.125 -4.6875,-8.1875 -7.4375,-11.9375 z m 33.5625,0.3125 h -21.4375 v 4.25 h 16.875 v 44.5625 c 0,1.0625 -0.3125,1.375 -1.375,1.4375 -1,0.0625 -4.4375,0.125 -8,-0.0625 0.625,1.25 1.3125,3.25 1.5,4.4375 4.875,0 8.0625,-0.0625 9.9375,-0.8125 1.8125,-0.75 2.5,-2.0625 2.5,-4.9375 z"
           style="font-style:normal;font-variant:normal;font-weight:normal;font-stretch:normal;font-size:62.5px;font-family:'Noto Sans CJK SC';-inkscape-font-specification:'Noto Sans CJK SC';fill:#000000;fill-opacity:1;stroke-width:0.9375"
           id="path975" />
        <path
           d="m 4483.3211,428.74207 v -19.5 h 19.5 v -4.5625 h -19.5 v -16.625 h 21.875 v -4.5 h -51.1875 v 4.5 h 24.5625 v 40.6875 h -13.75 v -29.25 h -4.6875 v 29.25 h -8.5 v 4.5625 h 55.625 v -4.5625 z"
           style="font-style:normal;font-variant:normal;font-weight:normal;font-stretch:normal;font-size:62.5px;font-family:'Noto Sans CJK SC';-inkscape-font-specification:'Noto Sans CJK SC';fill:#000000;fill-opacity:1;stroke-width:0.9375"
           id="path977" />
        <path
           d="m 4552.5709,412.61707 h 14.0625 v -4.375 h -14.0625 v -11.9375 h -4.625 v 11.9375 h -14 v 4.375 h 14 v 17.5625 h -16.4375 v 4.375 h 37.5625 v -4.375 h -16.5 z m -15.6875,-24 c 1.125,-2.8125 2.1875,-5.6875 3,-8.5 l -4.75,-1.1875 c -0.875,3.1875 -2,6.5 -3.3125,9.6875 h -17.0625 v 4.4375 h 15 c -3.875,7.9375 -9.375,15.3125 -16.5,20.375 0.75,1 1.9375,2.9375 2.375,4.1875 2.625,-1.875 5.0625,-3.9375 7.25,-6.3125 v 24.4375 h 4.5625 v -29.9375 c 2.9375,-4 5.375,-8.25 7.5625,-12.75 h 34.0625 v -4.4375 z"
           style="font-style:normal;font-variant:normal;font-weight:normal;font-stretch:normal;font-size:62.5px;font-family:'Noto Sans CJK SC';-inkscape-font-specification:'Noto Sans CJK SC';fill:#000000;fill-opacity:1;stroke-width:0.9375"
           id="path979" />
        <path
           d="m 4607.7583,394.67957 h 10.3125 v 11.125 h -10.4375 c 0.125,-1.3125 0.125,-2.5625 0.125,-3.8125 z m 10.3125,15.625 v 15.8125 h 4.5625 v -15.8125 h 9.25 v -4.5 h -9.25 v -11.125 h 8 v -4.5 h -8 v -9.9375 h -4.5625 v 9.9375 h -10.3125 v -9.9375 h -4.5625 v 9.9375 h -8.8125 v 4.5 h 8.8125 v 7.25 c 0,1.3125 0,2.5625 -0.125,3.875 h -9.0625 v 4.5 h 8.5625 c -0.875,4.6875 -2.9375,9.3125 -7.625,12.8125 1,0.6875 2.75,2.4375 3.375,3.3125 5.5,-4.1875 7.875,-10.1875 8.8125,-16.125 z m -26.625,-20 c -2,-2.75 -6.25,-7.0625 -9.6875,-10.0625 l -3.3125,2.5 c 3.4375,3.125 7.5625,7.625 9.5,10.5 z m -1.8125,11.125 h -13.125 v 4.375 h 8.5625 v 17.75 c -2.75,1.0625 -5.9375,3.875 -9.25,7.375 l 3.0625,4.1875 c 3.1875,-4.25 6.25,-7.9375 8.375,-7.9375 1.3125,0 3.375,2.0625 5.875,3.75 4.3125,2.6875 9.5,3.4375 17.1875,3.4375 6,0 17.0625,-0.375 21.4375,-0.6875 0.125,-1.3125 0.875,-3.5625 1.375,-4.8125 -6,0.6875 -15.3125,1.1875 -22.625,1.1875 -7.0625,0 -12.25,-0.4375 -16.3125,-3 -2.0625,-1.25 -3.375,-2.4375 -4.5625,-3.1875 z"
           style="font-style:normal;font-variant:normal;font-weight:normal;font-stretch:normal;font-size:62.5px;font-family:'Noto Sans CJK SC';-inkscape-font-specification:'Noto Sans CJK SC';fill:#000000;fill-opacity:1;stroke-width:0.9375"
           id="path981" />
        <path
           d="m 4693.3207,382.74207 h -30.5 v 4.375 h 30.5 z m -40.9375,-3.8125 c -3.125,4.4375 -9.125,10.0625 -14.3125,13.5625 0.8125,0.875 2.0625,2.6875 2.75,3.6875 5.5625,-3.9375 11.9375,-10 16,-15.5 z m 2.5625,13.3125 c -4.3125,7.0625 -11.0625,14.25 -17.5,18.8125 0.9375,0.9375 2.5625,2.9375 3.25,3.875 2.3125,-1.8125 4.6875,-4.0625 7.0625,-6.5 v 27.75 h 4.625 v -32.875 c 2.5625,-3.0625 4.9375,-6.25 6.875,-9.4375 z m 40.1875,7.5625 h -35 v 4.4375 h 20.875 v 25.75 c 0,1.0625 -0.375,1.3125 -1.5625,1.375 -1.1875,0.0625 -5.3125,0.0625 -9.75,-0.0625 0.6875,1.3125 1.3125,3.25 1.5,4.5 6.125,0 9.625,0 11.75,-0.6875 2.0625,-0.75 2.75,-2.1875 2.75,-5.0625 v -25.8125 h 9.4375 z"
           style="font-style:normal;font-variant:normal;font-weight:normal;font-stretch:normal;font-size:62.5px;font-family:'Noto Sans CJK SC';-inkscape-font-specification:'Noto Sans CJK SC';fill:#000000;fill-opacity:1;stroke-width:0.9375"
           id="path983" />
        <path
           d="m 4716.1331,417.17957 c -3.25,4.4375 -8.375,9.0625 -13.375,12.0625 1.25,0.625 3.125,2.1875 4.0625,3.0625 4.6875,-3.3125 10.1875,-8.5 13.9375,-13.5 z m 31.625,-5.125 c 1.75,2.0625 3.3125,4.0625 4.375,5.625 l 3.6875,-2.25 c -2.5625,-3.75 -7.875,-9.5 -12.75,-13.75 l -3.5,1.8125 c 1.625,1.5625 3.375,3.25 5,5.0625 l -27.25,1.75 c 9.3125,-4.5 18.8125,-10.25 27.9375,-17.1875 l -3.5625,-3 c -3.125,2.5625 -6.5625,5.0625 -9.9375,7.3125 l -15.125,0.75 c 4.4375,-3.1875 9,-7.25 13.125,-11.5 8.0625,-0.8125 15.75,-2 21.6875,-3.4375 l -3.3125,-3.8125 c -10,2.5 -28.0625,4.125 -43.125,4.9375 0.5,1.0625 1.0625,2.875 1.1875,4.0625 5.4375,-0.25 11.3125,-0.625 17.0625,-1.125 -4,4.25 -8.625,7.9375 -10.25,8.9375 -1.8125,1.4375 -3.3125,2.375 -4.5625,2.5 0.5,1.1875 1.1875,3.3125 1.375,4.1875 1.1875,-0.5 3.1875,-0.75 15.875,-1.5 -5.375,3.25 -9.9375,5.75 -12.0625,6.75 -3.875,1.9375 -6.625,3.125 -8.6875,3.375 0.5625,1.25 1.25,3.375 1.4375,4.3125 1.75,-0.6875 4.1875,-1.0625 21.25,-2.3125 v 16.25 c 0,0.75 -0.1875,1 -1.25,1.0625 -1,0 -4.375,0 -8.125,-0.125 0.75,1.3125 1.5625,3.1875 1.75,4.5625 4.5625,0 7.6875,0 9.6875,-0.8125 2.0625,-0.75 2.625,-2 2.625,-4.625 v -16.6875 z m -9.9375,7.1875 c 5.1875,4 11.5625,9.6875 14.625,13.1875 l 3.9375,-2.8125 c -3.3125,-3.5 -9.75,-9 -14.875,-12.75 z"
           style="font-style:normal;font-variant:normal;font-weight:normal;font-stretch:normal;font-size:62.5px;font-family:'Noto Sans CJK SC';-inkscape-font-specification:'Noto Sans CJK SC';fill:#000000;fill-opacity:1;stroke-width:0.9375"
           id="path985" />
        <path
           d="m 4819.6955,408.61707 c -1.8125,-3.5 -5.875,-9.3125 -9.1875,-13.6875 l -3.625,1.8125 c 1.375,1.8125 2.8125,3.875 4.125,5.875 l -17.125,1.4375 c 2.75,-3.375 6.3125,-8.1875 8.9375,-11.875 h 16.8125 v -4.1875 h -17.8125 l 4,-1.3125 c -0.75,-1.9375 -2.375,-5.375 -3.75,-7.875 l -4.25,1.1875 c 1.1875,2.5 2.75,5.875 3.375,8 h -15.0625 v 4.1875 h 11.25 c -2.8125,3.875 -7.125,9.5625 -8.5625,10.875 -1.125,1.1875 -2.8125,1.625 -3.9375,1.9375 0.4375,0.9375 1.375,3.375 1.5625,4.5 1.6875,-0.75 4.3125,-1.0625 26.8125,-3.1875 1.0625,1.75 1.875,3.25 2.5,4.5625 z m -47.6875,4.5625 c 4.6875,-5.4375 9.375,-12.0625 13.25,-18.8125 l -4.125,-2.4375 c -1.1875,2.25 -2.5,4.625 -3.9375,6.8125 l -7.5625,0.8125 c 3.8125,-5.375 7.625,-12.125 10.5,-18.625 l -4.75,-2.1875 c -2.6875,7.5 -7.3125,15.5 -8.8125,17.5625 -1.3125,2.0625 -2.5,3.5 -3.625,3.75 0.5625,1.375 1.375,3.75 1.625,4.8125 0.9375,-0.5 2.375,-0.8125 9.8125,-1.875 -2.625,3.875 -5.0625,7 -6.1875,8.1875 -1.9375,2.3125 -3.4375,3.8125 -4.6875,4.125 0.5,1.25 1.25,3.5 1.5,4.4375 1.3125,-0.8125 3.375,-1.4375 18.8125,-4.8125 -0.1875,-0.9375 -0.25,-2.8125 -0.125,-4.0625 z m 11.625,8.75 c -7.5,2.25 -15.125,4.5 -20.125,5.8125 l 1.0625,4.625 c 5.5625,-1.8125 12.875,-4.125 19.8125,-6.375 z m 8.9375,-12.625 c -0.4375,12.3125 -1.8125,19 -12,22.8125 1.0625,0.75 2.3125,2.5625 2.875,3.6875 11.25,-4.5625 13.1875,-12.5 13.6875,-26.5 z m 17.75,21.4375 c -1.375,0 -1.5625,-0.25 -1.5625,-1.875 v -19.625 h -4.5625 v 19.625 c 0,4.5 1.0625,5.875 5.4375,5.875 h 5.4375 c 3.8125,0 4.875,-2.25 5.25,-10.75 -1.25,-0.3125 -3.0625,-1 -4,-1.875 -0.1875,7.4375 -0.4375,8.625 -1.75,8.625 z"
           style="font-style:normal;font-variant:normal;font-weight:normal;font-stretch:normal;font-size:62.5px;font-family:'Noto Sans CJK SC';-inkscape-font-specification:'Noto Sans CJK SC';fill:#000000;fill-opacity:1;stroke-width:0.9375"
           id="path987" />
        <path
           d="m 4872.6328,387.86707 c -0.75,-2.3125 -2.625,-5.875 -4.4375,-8.5625 l -3.875,1.5625 c 1.6875,2.75 3.5,6.5 4.1875,8.875 z m -38.75,25.9375 c 4.8125,-5.6875 9.625,-12.75 13.625,-19.75 l -3.75,-2.1875 c -1.25,2.4375 -2.625,4.875 -4.125,7.25 l -8,0.875 c 3.625,-5.4375 7.125,-12.4375 9.8125,-19.0625 l -4.25,-1.875 c -2.3125,7.4375 -6.6875,15.625 -8.0625,17.6875 -1.3125,2.125 -2.375,3.625 -3.375,3.875 0.4375,1.1875 1.1875,3.375 1.375,4.25 0.875,-0.4375 2.3125,-0.75 10,-1.8125 -2.6875,4.125 -5.125,7.3125 -6.3125,8.5625 -1.8125,2.25 -3.3125,3.875 -4.625,4.125 0.5,1.0625 1.1875,3.1875 1.375,4.0625 1.3125,-0.75 3.375,-1.3125 18.4375,-4.375 -0.062,-0.9375 -0.062,-2.625 0.062,-3.8125 z m -6.875,18.375 c 5.6875,-1.5 13.3125,-3.375 20.5625,-5.3125 l -0.4375,-3.8125 c -7.8125,1.75 -15.75,3.625 -21,4.6875 z m 29.5625,-13.4375 h 10 v 8.5 h -10 z m 10,-16.4375 h -10 v -7.875 h 10 z m 0,12.25 h -10 v -8 h 10 z m 16.125,12.6875 h -11.75 v -8.5 h 9.4375 v -4.1875 h -9.4375 v -8 h 9.3125 v -4.25 h -9.3125 v -7.875 h 10.875 v -4.25 h -24.125 c 1.5625,-3.25 2.9375,-6.5 4,-9.625 l -4.4375,-1.25 c -2.1875,7.125 -6.5625,16.1875 -11.5625,21.9375 0.8125,1 1.9375,3 2.3125,4.0625 1.5,-1.625 2.8125,-3.5 4.1875,-5.4375 v 36.25 h 4.375 v -4.5625 h 26.125 z"
           style="font-style:normal;font-variant:normal;font-weight:normal;font-stretch:normal;font-size:62.5px;font-family:'Noto Sans CJK SC';-inkscape-font-specification:'Noto Sans CJK SC';fill:#000000;fill-opacity:1;stroke-width:0.9375"
           id="path989" />
        <path
           d="m 4909.6328,410.30457 -0.6875,-4.3125 -6.875,2 v -12.0625 h 7.1875 v -4.4375 h -7.1875 v -12.5 h -4.5 v 12.5 h -8.375 v 4.4375 h 8.375 v 13.4375 c -3.5,1.0625 -6.75,2 -9.3125,2.5625 l 1.25,4.5625 8.0625,-2.4375 v 16.125 c 0,0.9375 -0.3125,1.1875 -1.1875,1.1875 -0.6875,0 -3.3125,0 -6.1875,-0.0625 0.6875,1.3125 1.25,3.25 1.5,4.5 4.125,0 6.625,-0.125 8.1875,-0.9375 1.625,-0.75 2.1875,-2.0625 2.1875,-4.625 v -17.5625 z m 12.875,-29.5625 c 2.25,2.8125 4.75,6.5 5.75,9 l 4.375,-1.875 c -1.125,-2.4375 -3.625,-6 -6,-8.6875 z m -4.3125,25 v -11.8125 h 20.4375 v 11.8125 z m 25,-16 h -29.625 v 16.5625 c 0,8.3125 -0.75,19 -7.625,26.625 1,0.625 2.9375,2.3125 3.625,3.25 6.4375,-7.0625 8.1875,-17.5 8.5625,-26.0625 h 20.5 v 3.9375 h 4.5625 z"
           style="font-style:normal;font-variant:normal;font-weight:normal;font-stretch:normal;font-size:62.5px;font-family:'Noto Sans CJK SC';-inkscape-font-specification:'Noto Sans CJK SC';fill:#000000;fill-opacity:1;stroke-width:0.9375"
           id="path991" />
        <path
           d="m 4342.4463,467.67957 c -1.9375,-2.5 -6.1875,-6.375 -9.4375,-9.125 l -3,2.75 c 3.25,2.9375 7.375,7 9.25,9.625 z m -2.6875,35.5625 v -26.625 h -13.8125 v 4.4375 h 9.3125 v 22.6875 c 0,2.75 -1.75,4.625 -2.9375,5.3125 0.8125,0.9375 2,2.875 2.4375,3.9375 0.9375,-1.1875 2.5625,-2.5625 13,-10.625 -0.5,-0.875 -1.3125,-2.625 -1.625,-3.875 z m 14.25,-2.125 v -5.0625 h 19.5 v 5.0625 z m 19.5,-13.125 v 4.8125 h -19.5 v -4.8125 z m 4.4375,-3.625 h -28.3125 v 29.75 h 4.375 v -9.625 h 19.5 v 4.375 c 0,0.8125 -0.25,1.0625 -1.1875,1.0625 -0.75,0.0625 -3.75,0.0625 -6.9375,-0.0625 0.5625,1.1875 1.1875,2.875 1.375,4 4.4375,0.0625 7.1875,0 9,-0.6875 1.6875,-0.6875 2.1875,-1.875 2.1875,-4.25 z m -11.9375,-7.125 v -4.375 h 13.125 v -3.375 h -13.125 v -3.9375 h 15 v -3.5625 h -15 v -4.875 h -4.5625 v 4.875 h -14.375 v 3.5625 h 14.375 v 3.9375 h -12.875 v 3.375 h 12.875 v 4.375 h -16.25 v 3.5625 h 37.625 v -3.5625 z"
           style="font-style:normal;font-variant:normal;font-weight:normal;font-stretch:normal;font-size:62.5px;font-family:'Noto Sans CJK SC';-inkscape-font-specification:'Noto Sans CJK SC';fill:#000000;fill-opacity:1;stroke-width:0.9375"
           id="path993" />
        <path
           d="m 4440.9462,458.80457 c -1.5,3.625 -4.375,8.75 -6.5,11.8125 l 3.5625,1.75 c 2.25,-3 5,-7.6875 7.0625,-11.6875 z m -38.6875,4.8125 c 2.375,-0.6875 4.625,-1.4375 6.5625,-2.3125 l -2.6875,-3.6875 c -4,2 -10.9375,3.75 -16.875,4.875 0.5,1.0625 1.125,2.5625 1.25,3.625 2.4375,-0.375 5,-0.875 7.5625,-1.5 v 10.25 h -9.375 v 4.375 h 8.25 c -1.9375,6.75 -5.4375,14.375 -8.75,18.6875 0.8125,1.125 2,3.125 2.375,4.4375 2.75,-3.75 5.4375,-9.75 7.5,-15.75 v 27.5625 h 4.1875 v -28.5 c 1.8125,2.75 4.0625,6.25 4.875,7.9375 l 2.4375,-3.5 c -1,-1.4375 -5.625,-7.0625 -7.3125,-9 v -1.875 h 7.5625 v -4.375 h -7.5625 z m 20,6.8125 c -1.0625,-3.0625 -3.75,-7.6875 -6.3125,-11.25 l -3.625,1.8125 c 2.5,3.5625 5.0625,8.4375 6.125,11.5 z m -4.5,26.125 v -6.6875 h 21 v 6.6875 z m 21,-17.375 v 6.625 h -21 v -6.625 z m 0,-4.4375 -8.0625,0.0625 v -17.75 h -4.375 v 17.75 h -12.875 v 39.375 h 4.3125 v -13.625 h 21 v 7.6875 c 0,0.875 -0.3125,1.125 -1.25,1.1875 -0.875,0.0625 -4,0.0625 -7.5,-0.0625 0.6875,1.1875 1.3125,3.0625 1.4375,4.375 4.75,0 7.5625,-0.125 9.375,-0.875 1.6875,-0.75 2.25,-2.0625 2.25,-4.5625 v -33.5625 z"
           style="font-style:normal;font-variant:normal;font-weight:normal;font-stretch:normal;font-size:62.5px;font-family:'Noto Sans CJK SC';-inkscape-font-specification:'Noto Sans CJK SC';fill:#000000;fill-opacity:1;stroke-width:0.9375"
           id="path995" />
        <path
           d="m 4498.1336,491.99207 v 14.6875 h -25.8125 v -14.6875 z m -30.4375,22.25 h 4.625 v -3.25 h 25.8125 v 3.125 h 4.8125 v -26.5 h -35.25 z m -5.25,-40 v -7.6875 c 14.25,-0.9375 30.0625,-2.625 40.75,-5.25 l -3.875,-3.6875 c -9.5625,2.375 -26.875,4.125 -41.625,5.0625 v 16.0625 c 0,9.625 -0.625,22.9375 -7.3125,32.375 1.125,0.5625 3,2.1875 3.8125,3.1875 7.125,-10.125 8.25,-25.1875 8.25,-35.5625 h 45.125 v -4.5 z"
           style="font-style:normal;font-variant:normal;font-weight:normal;font-stretch:normal;font-size:62.5px;font-family:'Noto Sans CJK SC';-inkscape-font-specification:'Noto Sans CJK SC';fill:#000000;fill-opacity:1;stroke-width:0.9375"
           id="path997" />
        <path
           d="m 4555.1959,466.42957 c -0.625,-2.3125 -2.0625,-6.25 -3.1875,-9.1875 l -4.375,1.125 c 1.125,3.0625 2.375,7.125 2.9375,9.5 z m -24.4375,0.6875 c -1.9375,-2.3125 -6,-6.1875 -8.875,-9 l -3.1875,2.8125 c 2.9375,2.9375 6.8125,7 8.6875,9.4375 z m -2.875,34.375 v -25 h -14.125 v 4.5 h 9.5625 v 20.6875 c 0,2.8125 -2.1875,5 -3.5,5.8125 0.875,0.8125 2.375,2.75 2.875,3.8125 0.875,-1.3125 2.4375,-2.75 13.6875,-11.1875 -0.4375,-0.8125 -1.125,-2.4375 -1.4375,-3.6875 z m 42.125,-29 v -4.5 h -35.9375 v 4.5 h 9.0625 c -0.3125,15.625 -1.3125,30.5 -11.25,38.5625 1.125,0.6875 2.5625,2.1875 3.3125,3.25 7.75,-6.5 10.625,-16.75 11.75,-28.3125 h 13.875 c -0.6875,15.375 -1.5625,21.25 -2.8125,22.6875 -0.5625,0.6875 -1.1875,0.8125 -2.25,0.75 -1.1875,0 -4.25,0 -7.4375,-0.3125 0.75,1.25 1.1875,3.0625 1.25,4.4375 3.1875,0.1875 6.375,0.25 8.125,0.0625 1.8125,-0.1875 3.125,-0.625 4.25,-2.0625 1.9375,-2.25 2.6875,-8.9375 3.5,-27.75 0,-0.625 0.062,-2.1875 0.062,-2.1875 h -18.1875 c 0.1875,-3 0.3125,-6 0.375,-9.125 z"
           style="font-style:normal;font-variant:normal;font-weight:normal;font-stretch:normal;font-size:62.5px;font-family:'Noto Sans CJK SC';-inkscape-font-specification:'Noto Sans CJK SC';fill:#000000;fill-opacity:1;stroke-width:0.9375"
           id="path999" />
        <path
           d="m 4579.1333,514.17957 h 4.5625 v -43.0625 h -4.5625 z m 0.6875,-54.0625 c 3.125,3.25 7.25,7.75 9.25,10.4375 l 3.4375,-2.5625 c -2,-2.625 -6.1875,-6.9375 -9.3125,-10.0625 z m 30.8125,20.0625 v 14.375 h -13.0625 v -14.375 z m 4.5,18.625 v -22.875 h -21.8125 v 26.875 h 4.25 v -4 z m 14.5,-38.1875 h -34.25 v 4.3125 h 29.6875 v 42.6875 c 0,1.0625 -0.375,1.4375 -1.5,1.5 -1,0 -4.75,0.0625 -8.5,-0.125 0.625,1.3125 1.375,3.375 1.5625,4.6875 5.0625,0.0625 8.375,-0.0625 10.375,-0.8125 1.9375,-0.8125 2.625,-2.1875 2.625,-5.1875 z"
           style="font-style:normal;font-variant:normal;font-weight:normal;font-stretch:normal;font-size:62.5px;font-family:'Noto Sans CJK SC';-inkscape-font-specification:'Noto Sans CJK SC';fill:#000000;fill-opacity:1;stroke-width:0.9375"
           id="path1001" />
        <path
           d="m 4660.0706,481.49207 c -2.3125,0 -4.125,1.8125 -4.125,4.125 0,2.3125 1.8125,4.125 4.125,4.125 2.3125,0 4.125,-1.8125 4.125,-4.125 0,-2.3125 -1.8125,-4.125 -4.125,-4.125 z m 20.8125,0 c -2.3125,0 -4.125,1.8125 -4.125,4.125 0,2.3125 1.8125,4.125 4.125,4.125 2.3125,0 4.125,-1.8125 4.125,-4.125 0,-2.3125 -1.8125,-4.125 -4.125,-4.125 z m 20.8125,0 c -2.3125,0 -4.125,1.8125 -4.125,4.125 0,2.3125 1.8125,4.125 4.125,4.125 2.3125,0 4.125,-1.8125 4.125,-4.125 0,-2.3125 -1.8125,-4.125 -4.125,-4.125 z"
           style="font-style:normal;font-variant:normal;font-weight:normal;font-stretch:normal;font-size:62.5px;font-family:'Noto Sans CJK SC';-inkscape-font-specification:'Noto Sans CJK SC';fill:#000000;fill-opacity:1;stroke-width:0.9375"
           id="path1003" />
        <path
           d="m 4722.5705,481.49207 c -2.3125,0 -4.125,1.8125 -4.125,4.125 0,2.3125 1.8125,4.125 4.125,4.125 2.3125,0 4.125,-1.8125 4.125,-4.125 0,-2.3125 -1.8125,-4.125 -4.125,-4.125 z m 20.8125,0 c -2.3125,0 -4.125,1.8125 -4.125,4.125 0,2.3125 1.8125,4.125 4.125,4.125 2.3125,0 4.125,-1.8125 4.125,-4.125 0,-2.3125 -1.8125,-4.125 -4.125,-4.125 z m 20.8125,0 c -2.3125,0 -4.125,1.8125 -4.125,4.125 0,2.3125 1.8125,4.125 4.125,4.125 2.3125,0 4.125,-1.8125 4.125,-4.125 0,-2.3125 -1.8125,-4.125 -4.125,-4.125 z"
           style="font-style:normal;font-variant:normal;font-weight:normal;font-stretch:normal;font-size:62.5px;font-family:'Noto Sans CJK SC';-inkscape-font-specification:'Noto Sans CJK SC';fill:#000000;fill-opacity:1;stroke-width:0.9375"
           id="path1005" />
      </g>
    </g>
  </g>
</svg>
